<svg viewBox="0 0 1033 400" xmlns="http://www.w3.org/2000/svg"><g><g><g><g><g><line x1="48.875" y1="377" x2="43.875" y2="377" style="visibility: inherit;" fill="rgb(0, 0, 0)" stroke="rgb(204, 204, 204)" stroke-width="1px"></line><line x1="48.875" y1="342.72727272727275" x2="43.875" y2="342.72727272727275" style="visibility: inherit;" fill="rgb(0, 0, 0)" stroke="rgb(204, 204, 204)" stroke-width="1px"></line><line x1="48.875" y1="308.45454545454544" x2="43.875" y2="308.45454545454544" style="visibility: inherit;" fill="rgb(0, 0, 0)" stroke="rgb(204, 204, 204)" stroke-width="1px"></line><line x1="48.875" y1="274.1818181818182" x2="43.875" y2="274.1818181818182" style="visibility: inherit;" fill="rgb(0, 0, 0)" stroke="rgb(204, 204, 204)" stroke-width="1px"></line><line x1="48.875" y1="239.9090909090909" x2="43.875" y2="239.9090909090909" style="visibility: inherit;" fill="rgb(0, 0, 0)" stroke="rgb(204, 204, 204)" stroke-width="1px"></line><line x1="48.875" y1="205.63636363636365" x2="43.875" y2="205.63636363636365" style="visibility: inherit;" fill="rgb(0, 0, 0)" stroke="rgb(204, 204, 204)" stroke-width="1px"></line><line x1="48.875" y1="171.36363636363637" x2="43.875" y2="171.36363636363637" style="visibility: inherit;" fill="rgb(0, 0, 0)" stroke="rgb(204, 204, 204)" stroke-width="1px"></line><line x1="48.875" y1="137.09090909090915" x2="43.875" y2="137.09090909090915" style="visibility: inherit;" fill="rgb(0, 0, 0)" stroke="rgb(204, 204, 204)" stroke-width="1px"></line><line x1="48.875" y1="102.81818181818187" x2="43.875" y2="102.81818181818187" style="visibility: inherit;" fill="rgb(0, 0, 0)" stroke="rgb(204, 204, 204)" stroke-width="1px"></line><line x1="48.875" y1="68.54545454545456" x2="43.875" y2="68.54545454545456" style="visibility: inherit;" fill="rgb(0, 0, 0)" stroke="rgb(204, 204, 204)" stroke-width="1px"></line><line x1="48.875" y1="34.27272727272731" x2="43.875" y2="34.27272727272731" style="visibility: inherit;" fill="rgb(0, 0, 0)" stroke="rgb(204, 204, 204)" stroke-width="1px"></line><line x1="48.875" y1="0" x2="43.875" y2="0" style="visibility: inherit;" fill="rgb(0, 0, 0)" stroke="rgb(204, 204, 204)" stroke-width="1px"></line></g><g transform="translate(38.875, 0)"><text x="0" y="377" dx="0em" dy="0.3em" style="text-anchor: end; visibility: hidden; font-family: &quot;Helvetica Neue&quot;, sans-serif; font-size: 12px; font-weight: 200;" fill="rgb(50, 49, 63)" stroke="none" stroke-width="1px">-0.2</text><text x="0" y="342.72727272727275" dx="0em" dy="0.3em" style="text-anchor: end; visibility: inherit; font-family: &quot;Helvetica Neue&quot;, sans-serif; font-size: 12px; font-weight: 200;" fill="rgb(50, 49, 63)" stroke="none" stroke-width="1px">0</text><text x="0" y="308.45454545454544" dx="0em" dy="0.3em" style="text-anchor: end; visibility: inherit; font-family: &quot;Helvetica Neue&quot;, sans-serif; font-size: 12px; font-weight: 200;" fill="rgb(50, 49, 63)" stroke="none" stroke-width="1px">0.2</text><text x="0" y="274.1818181818182" dx="0em" dy="0.3em" style="text-anchor: end; visibility: inherit; font-family: &quot;Helvetica Neue&quot;, sans-serif; font-size: 12px; font-weight: 200;" fill="rgb(50, 49, 63)" stroke="none" stroke-width="1px">0.4</text><text x="0" y="239.9090909090909" dx="0em" dy="0.3em" style="text-anchor: end; visibility: inherit; font-family: &quot;Helvetica Neue&quot;, sans-serif; font-size: 12px; font-weight: 200;" fill="rgb(50, 49, 63)" stroke="none" stroke-width="1px">0.6</text><text x="0" y="205.63636363636365" dx="0em" dy="0.3em" style="text-anchor: end; visibility: inherit; font-family: &quot;Helvetica Neue&quot;, sans-serif; font-size: 12px; font-weight: 200;" fill="rgb(50, 49, 63)" stroke="none" stroke-width="1px">0.8</text><text x="0" y="171.36363636363637" dx="0em" dy="0.3em" style="text-anchor: end; visibility: inherit; font-family: &quot;Helvetica Neue&quot;, sans-serif; font-size: 12px; font-weight: 200;" fill="rgb(50, 49, 63)" stroke="none" stroke-width="1px">1</text><text x="0" y="137.09090909090915" dx="0em" dy="0.3em" style="text-anchor: end; visibility: inherit; font-family: &quot;Helvetica Neue&quot;, sans-serif; font-size: 12px; font-weight: 200;" fill="rgb(50, 49, 63)" stroke="none" stroke-width="1px">1.2</text><text x="0" y="102.81818181818187" dx="0em" dy="0.3em" style="text-anchor: end; visibility: inherit; font-family: &quot;Helvetica Neue&quot;, sans-serif; font-size: 12px; font-weight: 200;" fill="rgb(50, 49, 63)" stroke="none" stroke-width="1px">1.4</text><text x="0" y="68.54545454545456" dx="0em" dy="0.3em" style="text-anchor: end; visibility: inherit; font-family: &quot;Helvetica Neue&quot;, sans-serif; font-size: 12px; font-weight: 200;" fill="rgb(50, 49, 63)" stroke="none" stroke-width="1px">1.6</text><text x="0" y="34.27272727272731" dx="0em" dy="0.3em" style="text-anchor: end; visibility: inherit; font-family: &quot;Helvetica Neue&quot;, sans-serif; font-size: 12px; font-weight: 200;" fill="rgb(50, 49, 63)" stroke="none" stroke-width="1px">1.8</text><text x="0" y="0" dx="0em" dy="0.3em" style="text-anchor: end; visibility: hidden; font-family: &quot;Helvetica Neue&quot;, sans-serif; font-size: 12px; font-weight: 200;" fill="rgb(50, 49, 63)" stroke="none" stroke-width="1px">2</text></g><line x1="48.875" y1="0" x2="48.875" y2="377" fill="rgb(0, 0, 0)" stroke="rgb(204, 204, 204)" stroke-width="1px"></line></g></g><g transform="translate(48, 0)" clip-path="url(#clip_0)"><clipPath id="clip_0"><rect width="984" height="377"></rect></clipPath><g><g><g><line x1="0" y1="0" x2="0" y2="377" fill="rgb(0, 0, 0)" stroke="rgb(60, 60, 60)" stroke-width="1px" opacity="0.25"></line><line x1="123.015625" y1="0" x2="123.015625" y2="377" fill="rgb(0, 0, 0)" stroke="rgb(60, 60, 60)" stroke-width="1px" opacity="0.25"></line><line x1="246.03125" y1="0" x2="246.03125" y2="377" fill="rgb(0, 0, 0)" stroke="rgb(60, 60, 60)" stroke-width="1px" opacity="0.25"></line><line x1="369.046875" y1="0" x2="369.046875" y2="377" fill="rgb(0, 0, 0)" stroke="rgb(60, 60, 60)" stroke-width="1px" opacity="0.25"></line><line x1="492.0625" y1="0" x2="492.0625" y2="377" fill="rgb(0, 0, 0)" stroke="rgb(60, 60, 60)" stroke-width="1px" opacity="0.25"></line><line x1="615.078125" y1="0" x2="615.078125" y2="377" fill="rgb(0, 0, 0)" stroke="rgb(60, 60, 60)" stroke-width="1px" opacity="0.25"></line><line x1="738.09375" y1="0" x2="738.09375" y2="377" fill="rgb(0, 0, 0)" stroke="rgb(60, 60, 60)" stroke-width="1px" opacity="0.25"></line><line x1="861.109375" y1="0" x2="861.109375" y2="377" fill="rgb(0, 0, 0)" stroke="rgb(60, 60, 60)" stroke-width="1px" opacity="0.25"></line><line x1="984.125" y1="0" x2="984.125" y2="377" fill="rgb(0, 0, 0)" stroke="rgb(60, 60, 60)" stroke-width="1px" opacity="0.25"></line></g><g><line x1="0" y1="377" x2="984.125" y2="377" fill="rgb(0, 0, 0)" stroke="rgb(60, 60, 60)" stroke-width="1px" opacity="0.25"></line><line x1="0" y1="342.72727272727275" x2="984.125" y2="342.72727272727275" fill="rgb(0, 0, 0)" stroke="rgb(60, 60, 60)" stroke-width="1px" opacity="0.25"></line><line x1="0" y1="308.45454545454544" x2="984.125" y2="308.45454545454544" fill="rgb(0, 0, 0)" stroke="rgb(60, 60, 60)" stroke-width="1px" opacity="0.25"></line><line x1="0" y1="274.1818181818182" x2="984.125" y2="274.1818181818182" fill="rgb(0, 0, 0)" stroke="rgb(60, 60, 60)" stroke-width="1px" opacity="0.25"></line><line x1="0" y1="239.9090909090909" x2="984.125" y2="239.9090909090909" fill="rgb(0, 0, 0)" stroke="rgb(60, 60, 60)" stroke-width="1px" opacity="0.25"></line><line x1="0" y1="205.63636363636365" x2="984.125" y2="205.63636363636365" fill="rgb(0, 0, 0)" stroke="rgb(60, 60, 60)" stroke-width="1px" opacity="0.25"></line><line x1="0" y1="171.36363636363637" x2="984.125" y2="171.36363636363637" fill="rgb(0, 0, 0)" stroke="rgb(60, 60, 60)" stroke-width="1px" opacity="0.25"></line><line x1="0" y1="137.09090909090915" x2="984.125" y2="137.09090909090915" fill="rgb(0, 0, 0)" stroke="rgb(60, 60, 60)" stroke-width="1px" opacity="0.25"></line><line x1="0" y1="102.81818181818187" x2="984.125" y2="102.81818181818187" fill="rgb(0, 0, 0)" stroke="rgb(60, 60, 60)" stroke-width="1px" opacity="0.25"></line><line x1="0" y1="68.54545454545456" x2="984.125" y2="68.54545454545456" fill="rgb(0, 0, 0)" stroke="rgb(60, 60, 60)" stroke-width="1px" opacity="0.25"></line><line x1="0" y1="34.27272727272731" x2="984.125" y2="34.27272727272731" fill="rgb(0, 0, 0)" stroke="rgb(60, 60, 60)" stroke-width="1px" opacity="0.25"></line><line x1="0" y1="0" x2="984.125" y2="0" fill="rgb(0, 0, 0)" stroke="rgb(60, 60, 60)" stroke-width="1px" opacity="0.25"></line></g></g></g><g><g><line x1="0" y1="342.72727272727275" x2="984.125" y2="342.72727272727275" fill="rgb(0, 0, 0)" stroke="rgb(153, 153, 153)" stroke-width="1.5px"></line></g></g><g><g><line x1="123.015625" y1="0" x2="123.015625" y2="377" fill="rgb(0, 0, 0)" stroke="rgb(153, 153, 153)" stroke-width="1.5px"></line></g></g><g><g><g><g><g><path stroke="rgb(204, 51, 17)" stroke-width="2px" d="M124.04895624999999,148.15046976913106L124.12276562499999,156.26732457767835L124.762446875,234.71293473785576L125.32831875,227.90278616276657L126.90291875000001,245.83056035366928L127.12434687500001,210.43233668262312L128.64974062500002,109.34362752871084L128.77275625,159.9795256961476L129.289421875,130.96248014406726L129.732278125,219.87315950068563L130.5933875,225.58995330875572L130.64259375,203.15112547440964L130.83941875000002,227.96257932077756L133.373540625,118.02241953936493L134.3330625,218.57228550043976L134.67750625,180.64524227922615L136.2029,154.14970300414348L136.867184375,25.899364514784338L137.260834375,226.63314678452232L137.43305625,181.01029309359464L138.61400625000002,99.33737429705536L138.933846875,-175.33090320500457L139.278290625,194.07106356187302L139.524321875,177.38079528916967L140.58225625,188.64661682735792L140.77908125000002,175.23224551569334L141.98463437499998,145.84723813967273L142.329078125,112.71514860066503L142.378284375,180.21706852045926L142.74733125,-103.22182546962392L142.89495,206.23458938165146L143.58383750000002,229.91442655975172L146.26557812500002,40.179184079170284L146.90525937499999,172.4195157126947L146.92986249999998,234.55740511417392L147.07748125,135.6033035299995L147.741765625,138.93402961167425L147.96319375000002,160.09079776026988L149.16874687499998,148.38635347106242L149.24255625,208.64688683639875L149.906840625,104.89636074412954L150.17747500000002,143.64714817567307L151.579853125,148.46479751847008L152.0473125,182.54024822603574L154.040165625,-76.86409440907562L155.3933375,-130.0827424092726L155.467146875,176.52983058582655L155.81159062499998,-132.31688607822764L155.910003125,191.88780638304627L157.090953125,231.33657219735062L157.263175,123.4366317770698L157.80444375,41.82728534395051L158.09968124999997,-183.74709151007903L158.3457125,106.87911575490784L159.08380624999998,196.4068576422605L159.698884375,182.24201784892517L160.486184375,184.9414532022043L161.199675,197.90124738758263L161.59332500000002,172.14138662273234L161.986975,179.7459650310603L162.503640625,119.74737145683986L163.36475000000002,143.25637833638626L164.619509375,209.01089581576264L165.062365625,180.31517465006223L165.28379375,233.71721625328067L165.6282375,193.71851476756012L165.67744375,-222.6441035487435L165.751253125,224.83287632465365L166.833790625,-37.25099444389343L167.94093125,-63.14753987572408L168.3837875,217.81356405128133L168.605215625,114.16599577123475L168.92505624999998,-25.89948708360845L168.99886562499998,192.04753398895267L169.195690625,204.22770874066788L170.179815625,32.366320382465005L170.59806875,168.7715713002465L170.917909375,223.165991387584L172.24647812499998,237.66135844317353L173.1075875,178.87049677697095L174.116315625,222.83519855954432L174.583775,62.15305729345846L176.822659375,68.7505898150531L177.11789687499999,243.87923403219745L177.413134375,242.84790930422872L177.905196875,60.81895692781973L178.0282125,220.33218996091324L178.052815625,149.71256857568568L178.544878125,-23.83922771974045L178.66789375,148.71773871508518L179.775034375,247.8765813058073L180.070271875,235.13978066769516L180.93138125000002,-24.552823413502097L181.792490625,180.7516320185228L181.81709375,9.194622906771542L181.8663,182.91952723806557L182.9488375,120.07932868870824L183.367090625,117.60560382496232L183.416296875,227.96168048273435L183.5393125,213.97441227327695L184.15439062500002,126.22341784563937L184.17899375000002,-135.42380148714233L184.425025,245.72174988009715L184.47423125,242.0091810551557L184.597246875,230.86269048127264L185.3107375,179.29636215621775L185.679784375,228.22984064167198L185.827403125,241.5784537792206L189.075015625,241.32246879014104L190.4281875,187.91785324161705L190.77263125,157.1767648241737L191.633740625,242.00760808858007L194.26627499999998,-175.4909780892458L196.013096875,211.89518538388342L197.095634375,66.16538860581142L197.75991875,133.5949929194017L197.83372812500002,230.38249647075483L199.26070937499998,225.24574940854856L200.786103125,217.36920099366796L201.6472125,133.24618247422308L202.48371874999998,243.2575138861483L202.82816250000002,240.03230934793302L202.87736875,-171.81808070702994L202.901971875,101.26354336738592L204.328953125,244.594300551848L206.075775,191.6867220130834L206.863075,150.38908720016482L207.87180312499999,176.13414777950808L208.6345,226.28984172235837L211.586875,-64.13769169287247L212.02973125,248.43308462338015L212.0789375,251.34614722295242L213.30909375,257.59350061416626L214.68686875,249.98773737387225L215.05591562499998,251.76898923787206L216.335278125,170.20617810162634L216.85194375,249.33345477689397L216.974959375,197.2600490125743L217.024165625,65.73314964771276L218.0821,240.8366366137158L219.6567,-226.63584329865193L220.3455875,-1.3599828156557692L221.034475,244.48625613342634L222.31383749999998,261.05329166759145L223.83923125,255.79362850297582L224.109865625,-93.96485588767314L225.90589375,249.9869304624471L226.2503375,222.6051879470999L226.39795625,181.71720878644425L227.013034375,249.7281774607572L227.13605,244.76475292986092L227.898746875,244.3454858389768L228.907475,255.72915730151266L229.227315625,233.22821771556684L229.276521875,204.68935400247577L231.269375,73.51827193390244L232.081278125,-6.641187451102496L233.53286250000002,169.42124735225332L233.951115625,263.0582878129049L234.46778125,253.92895834012467L236.8788875,249.23214142972773L237.7646,241.62728724154562L237.8630125,240.13516501946884L238.05983750000001,225.1480211994865L239.88046875,-170.45233715664256L240.8153875,256.70582654801285L241.110625,-64.32767337018794L241.15983125,33.14961688085032L242.09475,237.63766180385244L242.3899875,168.25122578577563L243.42331875,216.52115751396528L245.09633125,144.6521103923971L245.317759375,116.06528141281825L245.39156874999998,255.61201214790344L247.26140624999996,244.88454352725637L247.31061250000002,254.2295481670987L248.63918124999998,255.45842319726944L249.32806875000003,250.32270775599915L250.951875,258.5637860677459L251.911396875,257.73665589365095L254.12567812499998,216.71566402370283L254.519328125,235.02506646243012L254.863771875,263.49074637348L256.36456250000003,228.74530383131722L256.90583125,229.49844839898026L258.701859375,197.46697582981807L258.751065625,133.11137719587848L259.538365625,252.2929301045158L260.473284375,246.4968342672695L262.2693125,255.99805287339473L262.367725,145.0928883119063L262.73677187500004,156.96155439723623L263.7455,-60.610855492678525L263.819309375,252.10765711285853L265.910575,238.682918521491L266.32882812500003,246.2538926438852L266.40263749999997,253.57398881153628L267.23914375000004,247.44290216402575L267.28835,246.50509744882586L267.46057187499997,45.995994047685144L268.346284375,226.6209614005956L268.86295,91.5404241193425L269.453425,254.72737166014588L269.724059375,257.5570619241758L270.38834375,250.24064792828128L270.88040625,256.95771569555455L271.00342187499996,246.32243925874886L273.611353125,238.63266530362046L273.857384375,251.99489379470998L275.08754062500003,121.44029205495661L275.555,255.9032050316984L275.874840625,222.12062231519008L276.022459375,249.98017896305436L276.34229999999997,260.33856731924146L277.744678125,240.4457135633989L278.31055,252.095808793198L278.43356562499997,248.0542346022346L279.02404062500005,219.2115534164689L279.565309375,204.73569523204458L279.88515,254.10006441853264L280.475625,256.49546780369496L282.83752499999997,249.11545590920883L283.428,211.01749046282336L284.75656875,242.86691768602893L285.00260000000003,230.4268663850698L285.470059375,256.7283587835052L286.798628125,255.54111629724503L287.75815,188.4488213875077L287.831959375,249.2466249791059L288.127196875,258.626995831728L288.79148125,194.3940324133093L288.88989375,256.12985521554947L291.44861875000004,167.85590047186074L291.64544375,234.49649862267756L292.014490625,256.6832534562458L294.40099375000005,240.9671826254238L295.040675,254.28961710496384L295.58194375,233.01659242673355L297.84543125,241.52146949009463L298.04225625,259.37100902199745L299.050984375,261.27424240112305L300.551775,265.7074750553478L301.314471875,141.00415576588026L302.889071875,254.3210662224076L303.33192812500005,190.5612848563628L303.577959375,-53.78847046331924L303.6025625,255.93399023467845L304.070021875,131.04744076728824L304.63589375,251.4409644224427L305.103353125,259.80654201724315L306.30890625,251.00962430238724L306.5549375,238.14110303466973L306.628746875,245.3849205374718L306.99779375,212.53002039410853L307.80969687500004,37.39936400543564L310.220803125,250.48421260985464L311.0819125,255.4640920053829L312.139846875,230.8261445435611L312.28746562500004,255.423685149713L313.935875,247.41439469835976L314.4279375,242.08608277819374L314.6247625,191.87403781847522L314.87079375,260.20379268310285L315.73190312500003,218.25873402031988L317.3803125,259.4975613328544L318.16761249999996,263.9584638991139L319.619196875,40.829534259709476L320.48030625,249.21620748259807L320.750940625,255.78246452591637L321.046178125,255.87563726035035L321.46443125,252.3689125613733L324.2691875,263.47320371053434L325.130296875,252.56318414753133L325.277915625,192.65008232810283L326.97553125,241.71071575446564L328.05806874999996,262.8345128893852L328.2056875,249.11126814105296L328.77155937500004,142.63393299146134L328.894575,257.4111386320808L329.11600312499996,247.64765338464218L331.330284375,255.97073023969477L331.40409375,126.88089744611221L332.09298125000004,253.21767102588308L332.3390125,252.81385782090103L333.76599375,176.3930539922281L334.627103125,-146.37977925213897L335.43900625,95.14660320498729L335.463609375,260.42618360031736L336.81678125,261.63759768009186L336.939796875,254.31177141991532L339.99058437499997,205.42214193127373L340.06439375,255.14435079964727L341.44216875,260.81809230826116L341.614390625,260.2332449501211L342.08185000000003,250.69204847921026L342.155659375,249.64504515582865L342.672325,259.99471069736916L342.844546875,254.4673623280092L343.41041874999996,-207.82140623439443L343.828671875,262.5009775839069L344.271528125,262.6351291618564L344.41914687499997,234.9479911002246L344.665178125,245.013945563273L345.796921875,259.9216545711864L345.993746875,223.56232789429754L350.00405625,253.5009377923879L350.176278125,261.79209057580346L350.8405625,241.68446559797636L351.99690937500003,243.5869890993292L352.2183375,251.90589861436325L353.00563750000003,257.25873962044716L353.522303125,260.10916444388306L354.5802375,262.20685836943716L354.654046875,251.3984534686262L355.146109375,248.17452568899503L355.31833124999997,-159.48279510844839L355.9580125,257.7599133280191L357.68023125,261.4816492795944L357.901659375,265.796689838171L358.07388125,255.57639569044113L358.39372187500004,260.1597138697451L358.934990625,256.1869110031562L359.86990937499996,261.51691335168755L360.608003125,248.47346083684403L361.173875,261.8125187131492L361.61673125,259.7971042177894L363.33894999999995,143.5323624719273L365.110375,257.950237176635L365.184184375,259.51343910260636L366.168309375,260.89450375600296L366.758784375,246.19599930264735L368.35798750000004,262.2316479141062L370.27703125,262.5838290019469L370.400046875,259.8547371002761L370.47385625,217.31295211748645L371.1135375,256.4360321380875L372.196075,261.80771299383855L372.589725,161.9999910484661L373.18019999999996,258.92319360917264L373.598453125,259.05990891835904L375.345275,254.9940916354006L375.8373375,261.7154135622761L376.009559375,236.543193703348L378.7897125,264.63300610130483L378.863521875,258.269391073422L379.38018750000003,254.16155311194336L380.831771875,261.46692059256816L381.077803125,255.98809415643865L381.176215625,257.6229171319442L381.88970625,255.81637523391032L382.67700625,257.3891068859534L382.70160937500003,259.11676553162664L383.98097187499997,260.21481877023524L384.399225,255.39762906052852L384.74366875000004,250.2378186312589L385.13731874999996,156.17537753148514L385.555571875,255.9072395888242L386.539696875,243.32742918621412L387.671440625,216.56812180172315L387.69604375,240.89948377826L388.23731250000003,261.04209194129163L388.409534375,255.72380512952805L389.098421875,261.56113516200674L389.34445312500003,253.1509833715179L389.46746874999997,254.26892340183258L389.738103125,253.12859413298696L389.95953125,248.53505167094147L390.303975,253.1655894897201L391.23889375,260.58010961521757L391.312703125,263.2607510821386L392.149209375,245.71381354873833L392.247621875,261.31217234513974L392.81349375,260.8264423094013L392.9611125,258.6442933570255L393.01031875,260.6033057651737L393.99444374999996,255.17700517719442L394.1420625,258.79660554907537L394.461903125,252.55236744880676L394.58491875,260.9085838496685L396.15951875,246.02585334669462L396.626978125,258.7860442020676L396.84840625,253.2317766547203L397.955546875,261.1328643695875L398.52141874999995,255.2746108174324L398.570625,204.87456570972097L398.595228125,264.05676920305604L400.0468125,265.90663918040013L400.34205,255.45232539827174L403.95870937499996,259.6490563994104L405.262675,262.4888688054952L405.7547375,255.4717423428189L406.51743437500005,262.25635063919157L406.7388625,261.9457101686435L407.157115625,249.0382069078359L407.353940625,262.52234030853623L407.57536875,259.91684885187584L408.338065625,259.7649299014699L409.2975875,249.02412170713598L409.592825,233.481873896989L410.15869687500003,255.93000674789602L410.503140625,258.09447514739907L410.552346875,263.6226304281842L412.323771875,257.1280148625374L415.128528125,250.73228169571274L416.9737625,260.37350964817136L417.490428125,250.3890787742355L417.61344375,246.75195106051186L417.9578875,260.98365725441414L418.326934375,252.0838685469194L418.49915625,259.2508915744045L418.96661562500003,102.31600100343883L419.26185312499996,262.4011350626295L421.64835625,247.77281658215958L422.2880375,249.58204478025436L422.38645,259.03072221712637L422.7801,261.9496272639795L423.81343124999995,261.1234214630994L425.38803125000004,255.85096007043666L425.46184062500004,262.7457424185493L425.855490625,254.05062832615593L427.9959625,255.49114907329732L428.217390625,262.3727093095129L428.9800875,262.91853892532265L429.52135625,253.9520625634627L431.85865312500005,260.1770369302143L433.630078125,257.46164720166814L434.76182187499995,258.9461497285149L435.45070937500003,261.06585497205907L436.90229375,259.872070374814L437.29594375000005,261.5090842680498L438.058640625,258.71226287700915L438.77213125000003,262.5375490567901L439.510225,256.8360967798667L439.83006562500003,253.62048325213522L440.297525,256.61271509799093L441.355459375,260.65116378394043L441.84752187500004,254.5868260752071L443.274503125,252.22532318397003L443.69275624999995,255.6527356397022L444.357040625,255.9950499372049L444.87370625,253.30139574679464L445.16894375,259.7851077941331L445.53799062499996,259.6969297392802L445.63640312499996,258.232017796148L446.05465625,245.86541075598112L446.94036875,263.1206191669811L447.92449375,257.6049607992172L447.949096875,249.11748850887471L448.047509375,257.4612897092646L448.736396875,263.8092772120779L450.557028125,261.01167955181813L451.442740625,264.92070066657936L452.74670625,258.6724331162193L452.84511875,260.1893806322055L453.33718125,166.6295585307208L454.54273437499995,254.40580213611776L455.25622500000003,258.4065609086644L456.28955625000003,38.19471310485494L457.54431562499997,258.59428527680313L457.9133625,254.68918125737798L458.11018750000005,246.1160027168014L458.25780625,255.19769888032567L459.561771875,258.3927157385783L459.63558125000003,255.65513594584033L460.61970625000004,260.82428203387695L461.234784375,-149.8886386914686L461.94827499999997,261.2294690310955L462.78478125,259.70985564318573L463.645890625,236.52728018435567L464.2117625,262.3509533432397L464.6054125,243.69010012258184L465.909378125,245.96698966893285L466.40144062499996,259.60049360990524L466.47524999999996,265.13042613863945L466.72128125,255.92400087551638L466.8689,247.5927834077315L467.41016874999997,263.2150022685528L469.427625,257.33351171016693L472.89666562499997,256.6334088011222L473.044284375,264.00350283492696L474.520471875,262.19084270975804L474.545075,263.26404001225126L474.69269375,258.6634906990962L474.914121875,231.61395566029984L475.332375,256.9554686004465L475.6276125,262.97544660893357L475.77523125,253.7572394175963L477.226815625,261.29369509491056L478.456971875,7.062967202880202L479.61331875,255.0707175785845L480.49903125000003,260.1173408058557L481.08950625,147.6328003406525L481.163315625,228.515099151568L483.00855,259.5540757748214L483.15616875,228.72262859886345L483.8942625,255.36951994354075L484.115690625,261.9894876669754L484.214103125,258.3625433797186L484.361721875,261.183056303046L485.81330625,240.87551135908475L486.625209375,260.0188107924028L486.6498125,258.39487601410264L486.8466375,255.92364338311285L486.94505000000004,252.9082664576444L487.363303125,258.43884757973933L488.937903125,262.54464272748345L489.4053625,262.4799161743034L490.217265625,261.09967375343496L490.24186875,257.0056401057677L490.83234375,259.6147575568069L492.72678437499997,254.47971113703468L494.27678125,262.0572733337229L495.31011249999995,256.8382008780133L495.40852499999994,262.68865088170224L496.49106249999994,261.42187654972076L496.958521875,229.2764660445127L498.60693125000006,247.7871469205076L500.0339125,264.2469602687793L500.452165625,257.9597822238099L500.599784375,253.12420208345765L502.5926375,263.7066615711559L503.281525,261.66879655285317L503.69977812499997,263.77136258916426L503.74898437499996,75.38703793829143L504.536284375,258.3376619084315L505.29898124999994,256.62743357094854L506.750565625,260.75711431828415L510.26881249999997,28.564501025459947L510.8592875,249.37405569986865L511.08071562500004,257.7686923200434L511.22833437500003,252.63676629825073L512.360078125,256.3660351254723L512.4338875000001,258.5882385481488L512.9013468750001,264.2842058701949L513.3688062499999,258.9413950795477L516.148959375,142.94603407382968L516.493403125,204.1663630442186L518.0434,262.7885700084946L519.0029218750001,263.757834055207L519.5195875000001,249.33043141256684L520.9711718750001,259.46097453886813L521.2910125,260.2686673402786L521.5370437500001,261.4854489131408L521.6354562500001,260.595614571463L522.791803125,263.5306016694416L524.563228125,217.99433263865387L525.104496875,261.57762066884476L525.52275,188.58685431155294L526.65449375,256.3599679686806L527.491,261.7877036333084L529.090203125,263.3445064452562L530.418771875,252.30782221664083L531.058453125,259.9300709637729L531.1814687499999,253.04975173690104L532.928290625,257.82589621164584L533.026703125,259.2883363501592L533.814003125,245.10386000980031L535.0195562499999,257.9751748252999L536.54495,262.17829472639346L536.569553125,-263.85260018435383L537.1846312499999,262.85111075097865L537.4060593749999,262.38311233845627L537.750503125,256.37070295485586L538.7838343750001,257.73038956252014L539.3989125,258.69666599414563L542.89255625,263.43606535683983L543.6552531250001,255.99234320900658L544.491759375,264.3396427279169L545.05763125,230.57508273558184L545.9925499999999,263.4829785742543L546.23858125,260.2762410721996L547.148896875,259.9925657429478L547.345721875,258.98113802075386L547.6901656250001,257.2043497047641L547.9608,259.97378207065844L548.40365625,262.406272739172L548.4528625,259.9070127037439L549.018734375,258.2867294549942L549.0433375,252.07824059508064L549.067940625,261.38925792141396L549.14175,257.8128681670536L549.6092093750001,262.1981713040309L550.47031875,250.8359442786737L550.888571875,254.199937582016L551.233015625,255.9831607612697L551.74968125,250.23383514447647L552.1925375000001,261.41756621274084L552.4385687500001,260.7339130612937L553.644121875,263.73112426562744L554.6282468750001,257.01059392907405L554.972690625,259.579284096306L555.120309375,254.9623463099653L555.4647531249999,261.0956953736869L555.68618125,263.0752687020736L555.858403125,262.41205900907516L555.88300625,255.99728681824425L555.98141875,263.12407152219254L556.5964968750001,256.5595815127546L556.8425281250001,261.28357295285576L557.3345906249999,108.40176782824778L557.679034375,260.7901976867156L558.5647468750001,256.64196819067L559.0322062500001,256.3798649744554L560.237759375,253.75120290301064L560.2623625,261.3137606328184L561.0496625000001,258.3864545144818L561.9845812499999,261.77904210307383L564.715528125,262.1756952459162L564.93695625,202.43603852662176L565.33060625,262.5184742835435L565.404415625,258.2165077328682L565.62584375,260.48364284363663L566.31473125,261.47041380405426L567.1512375,257.7590655603192L567.175840625,250.6918135556308L567.4710781250001,262.05231440338224L568.4306,258.81695197387177L569.045678125,262.7735502205112L569.46393125,261.90997114235705L570.54646875,260.36742717027664L571.13694375,260.0742987204682L571.6782125,-293.756247325377L572.3671,262.4453619799831L573.69566875,251.24810237776154L574.7782062499999,262.53274844451386L576.967884375,260.91856299476194L576.9924875,263.68207120082593L579.1329593749999,260.67372155460447L579.3297843749999,260.67186259410596L580.436925,260.1741514558142L581.9131125,259.8960427939892L583.413903125,259.9049494618719L583.5861249999999,257.02147191221064L584.299615625,258.81253438917076L585.2099312500001,256.52711098844355L585.628184375,-39.220716303045094L586.661515625,254.68162284656006L587.842465625,259.2088606818156L588.826590625,258.97124058820987L589.44166875,253.09730844064194L589.9091281249999,256.3249439272014L590.03214375,262.52075202085757L590.598015625,260.03440256823194L591.139284375,262.8294977816669L591.65595,253.14026881348008L592.812296875,260.7059009779584L593.3289625,260.23027776317167L594.2392781249999,221.55078963799912L594.632928125,258.6400698396293L596.059909375,255.47190576791763L597.1424468749999,260.2607769722288L597.240859375,262.2887803072279L597.8559375000001,263.5985252261162L602.407515625,256.98337343606084L602.7765625000001,255.31928715380758L602.850371875,-155.8118588274176L603.391640625,258.1869431110946L603.539259375,261.6346713494171L604.10513125,259.51057916337794L604.720209375,250.34446372227237L605.0892562500001,258.70406097986483L606.07338125,243.83351586081767L606.221,258.7938886068084L606.56544375,244.38164364207876L606.836078125,263.15188443118876L607.05750625,248.7216831337322L608.18925,255.51614289933985L608.361471875,255.59450523419815L608.459884375,259.8543387515979L608.607503125,258.3969801122492L610.0590875,260.936764465137L610.723371875,-141.23883420770812L611.28924375,261.14850721576L613.0114625,264.3116766078906L613.55273125,256.7020881988785L614.364634375,256.41347947445786L614.561459375,256.16504268212753L614.7828875,260.6160988861864L614.955109375,260.09612618522215L615.939234375,254.51564423062587L616.2590749999999,252.01498486778954L616.382090625,262.990435754711L616.529709375,255.87164355949923L616.60351875,259.8052959008651L618.4733562499999,259.5710209147497L618.497959375,254.35890934684062L618.547165625,254.386936751279L619.580496875,257.7531158653173L619.65430625,254.31627582420003L620.4170031250001,259.73016631874174L621.0812875,257.77414663271475L621.155096875,258.24783428148794L621.2781125,251.10819006508046L622.6558875000001,265.35530928861016L623.024934375,251.89516362818807L623.2463624999999,263.0209911411459L623.2955687499999,260.7466551119631L624.255090625,263.36304497989744L624.501121875,251.49928675456482L624.845565625,253.6373160373081L625.9035,260.5499627915296L626.44476875,247.79812704433095L627.0106406250001,264.49034620415085L628.01936875,259.3460713733327L628.339209375,261.1542577364228L628.3638125,252.44268877939746L628.855875,260.37115530534226L628.90508125,260.923634279858L629.0280968750001,249.6327167749405L629.29873125,259.8567952351137L632.005075,257.53204766999596L632.029678125,256.42982198433447L632.44793125,259.72954326055265L632.54634375,260.4092282463204L633.456659375,253.8156026059931L634.2193562499999,262.3240801285614L634.243959375,262.67893219536L634.3177687499999,95.0542067397725L634.342371875,259.2961398986253L635.30189375,253.75680021264338L635.523321875,260.57990022680974L636.113796875,264.05584993687546L636.9257,262.3718053644354L637.5161750000001,261.1685370044275L637.540778125,260.32546266913414L638.426490625,258.33282043988055L639.361409375,244.07156494530767L640.345534375,262.83681616187096L640.5423593749999,246.83804544535553L640.5669625,261.9306852736256L641.329659375,264.52125397595495L641.5510875,258.11103215271777L641.6495,259.32588837363505L643.2240999999999,221.03807403282687L644.8233031249999,259.41015444018626L645.389175,243.93647367304024L645.782825,256.9127125089819L647.4558375,257.5852323255756L647.529646875,259.99351565133446L647.6526625,265.2546547488733L649.301071875,256.7488379911943L649.7439281249999,-307.81640312888396L651.5891625,259.379578625614L652.548684375,254.00312269275838L652.5732875,260.936309939081L654.443125,260.36317811770874L654.713759375,261.64495691657066L656.435978125,258.7012776461515L656.75581875,256.8145450949669L657.469309375,249.0639974312349L657.4939125000001,251.53629232536667L658.502640625,256.92583758722657L659.093115625,257.5924996354363L659.240734375,258.4915215318853L659.7327968750001,259.08405497670174L659.8804156250001,264.2495291070505L660.39708125,245.8978302099488L660.5447,262.00690776109695L662.0208875,258.41250038959765L663.472471875,265.96228542653L664.259771875,264.43651295521045L664.4319937500001,264.62960992347115L666.4986562500001,257.23319934173065L669.6970625,261.6819522733038L670.312140625,262.5092663006349L670.63198125,262.8241864659569L671.2962656249999,247.74662771008232L671.4684875,261.5587501769716L671.739121875,263.2069229402325L671.8621375,-122.6887372407046L672.034359375,80.07705227895218L672.0589625,256.95914566516876L672.40340625,-338.0284742875532L673.09229375,259.24140270460737L674.789909375,261.1257043074478L674.86371875,254.2686169797724L675.8970499999999,264.2672760513696L676.758159375,261.67483306743884L677.668475,258.96486190232366L679.907359375,260.17149579795927L679.956565625,256.56020457094365L680.3010093749999,242.08311048420995L682.93354375,261.8341521105983L683.105765625,128.55663798072123L683.401003125,260.9022868763317L684.60655625,243.42641372572294L684.6557625,260.35380160266703L684.926396875,260.3726312382655L684.9509999999999,253.6250080845573L685.074015625,262.988265265118L687.16528125,252.75510649789464L687.239090625,199.21008836139333L687.26369375,257.6496064933864L690.85575,264.0355239402164L690.9541624999999,259.3095254356211L690.978765625,255.14720052480698L691.39701875,252.47201337055728L691.766065625,23.273940303108873L692.012096875,255.23941313678569L692.28273125,239.89516504786232L692.405746875,257.86073129285467L692.5287625,261.1393043398857L692.627175,259.6366922692819L692.77479375,260.52600569345736L693.36526875,265.52345328710294L693.6113,260.26652749289167L694.25098125,102.55402965979147L694.3001875,256.29905126311564L694.5216156250001,256.461526453495L695.3581218749999,257.5629196925597L695.9239937499999,260.88639889251107L696.7605,264.6122970770706L697.178753125,256.5711131962863L697.769228125,139.99141042882746L698.2366875,259.66143585064196L698.58113125,258.3932519771836L699.393034375,261.0325826433572L702.1731875,263.2141749289903L703.3787406250001,259.7513145479289L704.87953125,261.53830671852285L705.37159375,253.41332151131198L705.642228125,263.7415017593991L706.134290625,263.94539499824697L707.610478125,258.32740698348397L707.9303187500001,261.0019966147163L708.840634375,255.90323567390442L709.332696875,260.3271582045338L709.60333125,257.0011254874143L711.7192,262.55263523621994L711.96523125,255.1156084104018L714.105703125,260.2515485611829L715.434271875,259.36731152913785L716.3445875,261.1694358424707L716.39379375,243.2084965705872L717.107284375,136.9500284845179L718.06680625,262.3049185357311L719.24775625,252.59630837223747L720.42870625,261.4852037754926L720.4779125,262.4739256230268L720.6747375,238.8159874081612L721.41283125,255.5194931138646L721.9787031249999,262.32926376841283L722.323146875,261.47651671008634L723.7255250000001,253.9883327213201L726.087425,262.6673239063133L727.1945656250001,262.48404265804726L727.292978125,264.7668155079538L728.769165625,257.3202742771669L729.900909375,259.252857782624L730.639003125,261.1682816527107L731.180271875,258.48077122460717L731.377096875,184.2214328592474L732.92709375,239.80785518884662L734.3786781250001,264.75431348789823L735.1167718749999,262.29218159209603L735.510421875,263.6567045612769L735.658040625,257.50306014310235L736.46994375,256.8829793550751L737.183434375,260.9802763976834L737.527878125,262.814396281134L738.290575,187.97729912129316L739.250096875,257.78253238309514L741.3659656250001,248.29509255560964L743.16199375,257.73718702522194L743.7770718749999,245.7179298184135L744.0969125,260.6056396798654L744.269134375,256.3109608671882L744.318340625,202.14479457248342L746.2619874999999,254.33273068883204L747.713571875,259.9212817576799L750.518328125,259.27312249487096L750.887375,260.38243163715714L752.1667375,260.5132891779596L752.8310218749999,264.0442671830004L754.3564156250001,263.86367734182966L754.97149375,262.3119866712527L756.472284375,258.1611781228673L757.161171875,108.16909134387976L757.2841874999999,262.23343537612396L758.0714875,255.66850616173312L758.9325968750001,263.4974314814264L759.326246875,258.16944641145795L759.7445,261.705848086964L760.753228125,266.78447709842163L762.032590625,261.23817652463913L763.0659218750001,246.65914603255013L763.410365625,260.8770530196754L763.8040156249999,262.26033412597394L764.32068125,262.6341792534698L764.542109375,264.2762848599391L764.9357593750001,258.6782500283285L765.00956875,261.87329752878713L766.48575625,257.76197146285665L766.510359375,263.1598922610283L766.854803125,263.252620683475L769.561146875,255.25697112083435L769.8809875,262.91014296087354L770.151621875,250.12630142948845L772.0214593750001,263.3921295404434L772.365903125,149.74018741737714L772.6119343749999,264.14908906275576L772.7595531249999,262.27578801187605L774.26034375,259.1104787723585L775.2936749999999,255.86433028632945L779.1809687499999,255.5199731750922L780.1158875,257.59537489576775L781.2476312499999,257.2501393746246L781.2968375,253.37514132261276L782.2809625000001,262.9672498188236L782.305565625,260.1389129188928L782.3301687500001,264.9947935207324L782.72381875,257.73274390534925L783.0436593750001,259.71492182124746L783.0928656250001,223.4267157045278L785.528575,262.5628033415838L788.948409375,259.6953618797389L789.2190437500001,260.36348964680326L790.79364375,261.15105562589383L790.9412625,264.96576513756406L791.08888125,261.1804057522254L791.1872937500001,261.2134329432791L791.211896875,240.7449449192394L793.05713125,259.70055573365903L794.04125625,258.95221177827233L795.394428125,263.47626793113625L798.07616875,264.4716340303421L798.346803125,263.3832943710414L798.5436281249999,260.2301041240042L799.724578125,252.62265045534485L800.315053125,260.3320967067372L801.299178125,263.90765401450074L801.3729875,260.9174241261049L802.135684375,262.8545937483961L802.381715625,263.5849864780903L802.5539375,261.5881207314405L802.8983812499999,257.6300465518778L802.9967937499999,257.2802453420379L804.399171875,101.82823836803442L804.8912343750001,254.64209440079605L804.96504375,250.68385679613465L805.4817093749999,260.0394534251907L807.597578125,247.6841686801477L809.8364624999999,217.794902947816L809.8856687499999,260.4371637241407L810.67296875,263.8792231543498L811.1158250000001,262.24056990309197L811.6816968750001,257.1091750128703L814.486453125,258.216170668602L818.078509375,260.3246659717777L818.718190625,239.77782582694837L818.915015625,262.8951436010274L819.800728125,254.79215949773788L821.1539,263.93803576176816L822.6792937499999,217.69420244477013L822.999134375,258.879268006845L823.2205625,259.3479150127281L825.2626218749999,261.14181700077927L825.9761125,261.55798412182116L826.935634375,249.12155370820653L828.5348375,264.79091049595314L833.824509375,257.3309530859644L835.76815625,266.0207303274762L836.4078375,261.6550177742135L836.94910625,265.06745640527123L837.4165656250001,257.24438885396177L837.908628125,258.63300170410764L838.0316437500001,252.26416728713298L838.42529375,260.0511740689928L838.7205312499999,262.70239901813596L839.11418125,258.4406350417571L839.778465625,259.81150094758385L841.451478125,-55.8721404725855L842.2879843750001,256.7980698021976L842.6570312499999,259.11191895604134L842.927665625,263.77108170227575L842.976871875,262.26462914185095L843.1736968749999,263.5321439938112L843.2967125,250.59967244213277L844.108615625,258.02328819578344L845.51099375,263.10538999058986L847.28241875,260.2652405202389L848.094321875,260.31229162758046L848.26654375,258.8212112405083L848.487971875,256.2858444723216L849.718128125,260.4073386436159L849.7919375,256.4685128764673L850.308603125,237.879908870567L850.603840625,264.9663626605814L851.0713000000001,251.19780830361628L851.538759375,262.08734355189586L854.884784375,263.38249256665057L856.8776375,259.82509076595306L856.902240625,259.82727657664907L857.000653125,254.47558465329087L857.738746875,258.51010092280126L858.0831906249999,259.9773774228313L858.20620625,254.83928721059453L858.526046875,259.95602491227066L859.33795,256.79492386904633L861.084771875,255.88229683312505" style="fill: none;" fill="none"></path></g></g></g></g></g><g><g opacity="0.303525"><span fill="rgb(0, 0, 0)" stroke="none" stroke-width="1px">Alt + Scroll to Zoom</span></g></g></g><g transform="translate(48, 377)" clip-path="url(#clip_1)"><clipPath id="clip_1"><rect width="984" height="23"></rect></clipPath><g><g><line x1="0" y1="0" x2="0" y2="5" style="visibility: inherit;" fill="rgb(0, 0, 0)" stroke="rgb(204, 204, 204)" stroke-width="1px"></line><line x1="123.015625" y1="0" x2="123.015625" y2="5" style="visibility: inherit;" fill="rgb(0, 0, 0)" stroke="rgb(204, 204, 204)" stroke-width="1px"></line><line x1="246.03125" y1="0" x2="246.03125" y2="5" style="visibility: inherit;" fill="rgb(0, 0, 0)" stroke="rgb(204, 204, 204)" stroke-width="1px"></line><line x1="369.046875" y1="0" x2="369.046875" y2="5" style="visibility: inherit;" fill="rgb(0, 0, 0)" stroke="rgb(204, 204, 204)" stroke-width="1px"></line><line x1="492.0625" y1="0" x2="492.0625" y2="5" style="visibility: inherit;" fill="rgb(0, 0, 0)" stroke="rgb(204, 204, 204)" stroke-width="1px"></line><line x1="615.078125" y1="0" x2="615.078125" y2="5" style="visibility: inherit;" fill="rgb(0, 0, 0)" stroke="rgb(204, 204, 204)" stroke-width="1px"></line><line x1="738.09375" y1="0" x2="738.09375" y2="5" style="visibility: inherit;" fill="rgb(0, 0, 0)" stroke="rgb(204, 204, 204)" stroke-width="1px"></line><line x1="861.109375" y1="0" x2="861.109375" y2="5" style="visibility: inherit;" fill="rgb(0, 0, 0)" stroke="rgb(204, 204, 204)" stroke-width="1px"></line><line x1="984.125" y1="0" x2="984.125" y2="5" style="visibility: inherit;" fill="rgb(0, 0, 0)" stroke="rgb(204, 204, 204)" stroke-width="1px"></line></g><g transform="translate(0, 8)"><text x="0" y="0" dx="0em" dy="0.95em" style="text-anchor: middle; visibility: hidden; font-family: &quot;Helvetica Neue&quot;, sans-serif; font-size: 12px; font-weight: 200;" fill="rgb(50, 49, 63)" stroke="none" stroke-width="1px">-5k</text><text x="123.015625" y="0" dx="0em" dy="0.95em" style="text-anchor: middle; visibility: inherit; font-family: &quot;Helvetica Neue&quot;, sans-serif; font-size: 12px; font-weight: 200;" fill="rgb(50, 49, 63)" stroke="none" stroke-width="1px">0</text><text x="246.03125" y="0" dx="0em" dy="0.95em" style="text-anchor: middle; visibility: inherit; font-family: &quot;Helvetica Neue&quot;, sans-serif; font-size: 12px; font-weight: 200;" fill="rgb(50, 49, 63)" stroke="none" stroke-width="1px">5k</text><text x="369.046875" y="0" dx="0em" dy="0.95em" style="text-anchor: middle; visibility: inherit; font-family: &quot;Helvetica Neue&quot;, sans-serif; font-size: 12px; font-weight: 200;" fill="rgb(50, 49, 63)" stroke="none" stroke-width="1px">10k</text><text x="492.0625" y="0" dx="0em" dy="0.95em" style="text-anchor: middle; visibility: inherit; font-family: &quot;Helvetica Neue&quot;, sans-serif; font-size: 12px; font-weight: 200;" fill="rgb(50, 49, 63)" stroke="none" stroke-width="1px">15k</text><text x="615.078125" y="0" dx="0em" dy="0.95em" style="text-anchor: middle; visibility: inherit; font-family: &quot;Helvetica Neue&quot;, sans-serif; font-size: 12px; font-weight: 200;" fill="rgb(50, 49, 63)" stroke="none" stroke-width="1px">20k</text><text x="738.09375" y="0" dx="0em" dy="0.95em" style="text-anchor: middle; visibility: inherit; font-family: &quot;Helvetica Neue&quot;, sans-serif; font-size: 12px; font-weight: 200;" fill="rgb(50, 49, 63)" stroke="none" stroke-width="1px">25k</text><text x="861.109375" y="0" dx="0em" dy="0.95em" style="text-anchor: middle; visibility: inherit; font-family: &quot;Helvetica Neue&quot;, sans-serif; font-size: 12px; font-weight: 200;" fill="rgb(50, 49, 63)" stroke="none" stroke-width="1px">30k</text><text x="984.125" y="0" dx="0em" dy="0.95em" style="text-anchor: middle; visibility: hidden; font-family: &quot;Helvetica Neue&quot;, sans-serif; font-size: 12px; font-weight: 200;" fill="rgb(50, 49, 63)" stroke="none" stroke-width="1px">35k</text></g><line x1="0" y1="0" x2="984.125" y2="0" fill="rgb(0, 0, 0)" stroke="rgb(204, 204, 204)" stroke-width="1px"></line></g></g></g></g></svg>