<svg viewBox="0 0 1033 400" xmlns="http://www.w3.org/2000/svg"><g><g><g><g><g><line x1="48.875" y1="377" x2="43.875" y2="377" style="visibility: inherit;" fill="rgb(0, 0, 0)" stroke="rgb(204, 204, 204)" stroke-width="1px"></line><line x1="48.875" y1="351.8666666666667" x2="43.875" y2="351.8666666666667" style="visibility: inherit;" fill="rgb(0, 0, 0)" stroke="rgb(204, 204, 204)" stroke-width="1px"></line><line x1="48.875" y1="326.73333333333335" x2="43.875" y2="326.73333333333335" style="visibility: inherit;" fill="rgb(0, 0, 0)" stroke="rgb(204, 204, 204)" stroke-width="1px"></line><line x1="48.875" y1="301.6" x2="43.875" y2="301.6" style="visibility: inherit;" fill="rgb(0, 0, 0)" stroke="rgb(204, 204, 204)" stroke-width="1px"></line><line x1="48.875" y1="276.4666666666667" x2="43.875" y2="276.4666666666667" style="visibility: inherit;" fill="rgb(0, 0, 0)" stroke="rgb(204, 204, 204)" stroke-width="1px"></line><line x1="48.875" y1="251.33333333333334" x2="43.875" y2="251.33333333333334" style="visibility: inherit;" fill="rgb(0, 0, 0)" stroke="rgb(204, 204, 204)" stroke-width="1px"></line><line x1="48.875" y1="226.2" x2="43.875" y2="226.2" style="visibility: inherit;" fill="rgb(0, 0, 0)" stroke="rgb(204, 204, 204)" stroke-width="1px"></line><line x1="48.875" y1="201.06666666666666" x2="43.875" y2="201.06666666666666" style="visibility: inherit;" fill="rgb(0, 0, 0)" stroke="rgb(204, 204, 204)" stroke-width="1px"></line><line x1="48.875" y1="175.93333333333334" x2="43.875" y2="175.93333333333334" style="visibility: inherit;" fill="rgb(0, 0, 0)" stroke="rgb(204, 204, 204)" stroke-width="1px"></line><line x1="48.875" y1="150.8" x2="43.875" y2="150.8" style="visibility: inherit;" fill="rgb(0, 0, 0)" stroke="rgb(204, 204, 204)" stroke-width="1px"></line><line x1="48.875" y1="125.66666666666669" x2="43.875" y2="125.66666666666669" style="visibility: inherit;" fill="rgb(0, 0, 0)" stroke="rgb(204, 204, 204)" stroke-width="1px"></line><line x1="48.875" y1="100.53333333333336" x2="43.875" y2="100.53333333333336" style="visibility: inherit;" fill="rgb(0, 0, 0)" stroke="rgb(204, 204, 204)" stroke-width="1px"></line><line x1="48.875" y1="75.39999999999998" x2="43.875" y2="75.39999999999998" style="visibility: inherit;" fill="rgb(0, 0, 0)" stroke="rgb(204, 204, 204)" stroke-width="1px"></line><line x1="48.875" y1="50.26666666666665" x2="43.875" y2="50.26666666666665" style="visibility: inherit;" fill="rgb(0, 0, 0)" stroke="rgb(204, 204, 204)" stroke-width="1px"></line><line x1="48.875" y1="25.133333333333326" x2="43.875" y2="25.133333333333326" style="visibility: inherit;" fill="rgb(0, 0, 0)" stroke="rgb(204, 204, 204)" stroke-width="1px"></line><line x1="48.875" y1="0" x2="43.875" y2="0" style="visibility: inherit;" fill="rgb(0, 0, 0)" stroke="rgb(204, 204, 204)" stroke-width="1px"></line></g><g transform="translate(38.875, 0)"><text x="0" y="377" dx="0em" dy="0.3em" style="text-anchor: end; visibility: hidden; font-family: &quot;Helvetica Neue&quot;, sans-serif; font-size: 12px; font-weight: 200;" fill="rgb(50, 49, 63)" stroke="none" stroke-width="1px">-140</text><text x="0" y="351.8666666666667" dx="0em" dy="0.3em" style="text-anchor: end; visibility: inherit; font-family: &quot;Helvetica Neue&quot;, sans-serif; font-size: 12px; font-weight: 200;" fill="rgb(50, 49, 63)" stroke="none" stroke-width="1px">-120</text><text x="0" y="326.73333333333335" dx="0em" dy="0.3em" style="text-anchor: end; visibility: inherit; font-family: &quot;Helvetica Neue&quot;, sans-serif; font-size: 12px; font-weight: 200;" fill="rgb(50, 49, 63)" stroke="none" stroke-width="1px">-100</text><text x="0" y="301.6" dx="0em" dy="0.3em" style="text-anchor: end; visibility: inherit; font-family: &quot;Helvetica Neue&quot;, sans-serif; font-size: 12px; font-weight: 200;" fill="rgb(50, 49, 63)" stroke="none" stroke-width="1px">-80</text><text x="0" y="276.4666666666667" dx="0em" dy="0.3em" style="text-anchor: end; visibility: inherit; font-family: &quot;Helvetica Neue&quot;, sans-serif; font-size: 12px; font-weight: 200;" fill="rgb(50, 49, 63)" stroke="none" stroke-width="1px">-60</text><text x="0" y="251.33333333333334" dx="0em" dy="0.3em" style="text-anchor: end; visibility: inherit; font-family: &quot;Helvetica Neue&quot;, sans-serif; font-size: 12px; font-weight: 200;" fill="rgb(50, 49, 63)" stroke="none" stroke-width="1px">-40</text><text x="0" y="226.2" dx="0em" dy="0.3em" style="text-anchor: end; visibility: inherit; font-family: &quot;Helvetica Neue&quot;, sans-serif; font-size: 12px; font-weight: 200;" fill="rgb(50, 49, 63)" stroke="none" stroke-width="1px">-20</text><text x="0" y="201.06666666666666" dx="0em" dy="0.3em" style="text-anchor: end; visibility: inherit; font-family: &quot;Helvetica Neue&quot;, sans-serif; font-size: 12px; font-weight: 200;" fill="rgb(50, 49, 63)" stroke="none" stroke-width="1px">0</text><text x="0" y="175.93333333333334" dx="0em" dy="0.3em" style="text-anchor: end; visibility: inherit; font-family: &quot;Helvetica Neue&quot;, sans-serif; font-size: 12px; font-weight: 200;" fill="rgb(50, 49, 63)" stroke="none" stroke-width="1px">20</text><text x="0" y="150.8" dx="0em" dy="0.3em" style="text-anchor: end; visibility: inherit; font-family: &quot;Helvetica Neue&quot;, sans-serif; font-size: 12px; font-weight: 200;" fill="rgb(50, 49, 63)" stroke="none" stroke-width="1px">40</text><text x="0" y="125.66666666666669" dx="0em" dy="0.3em" style="text-anchor: end; visibility: inherit; font-family: &quot;Helvetica Neue&quot;, sans-serif; font-size: 12px; font-weight: 200;" fill="rgb(50, 49, 63)" stroke="none" stroke-width="1px">60</text><text x="0" y="100.53333333333336" dx="0em" dy="0.3em" style="text-anchor: end; visibility: inherit; font-family: &quot;Helvetica Neue&quot;, sans-serif; font-size: 12px; font-weight: 200;" fill="rgb(50, 49, 63)" stroke="none" stroke-width="1px">80</text><text x="0" y="75.39999999999998" dx="0em" dy="0.3em" style="text-anchor: end; visibility: inherit; font-family: &quot;Helvetica Neue&quot;, sans-serif; font-size: 12px; font-weight: 200;" fill="rgb(50, 49, 63)" stroke="none" stroke-width="1px">100</text><text x="0" y="50.26666666666665" dx="0em" dy="0.3em" style="text-anchor: end; visibility: inherit; font-family: &quot;Helvetica Neue&quot;, sans-serif; font-size: 12px; font-weight: 200;" fill="rgb(50, 49, 63)" stroke="none" stroke-width="1px">120</text><text x="0" y="25.133333333333326" dx="0em" dy="0.3em" style="text-anchor: end; visibility: inherit; font-family: &quot;Helvetica Neue&quot;, sans-serif; font-size: 12px; font-weight: 200;" fill="rgb(50, 49, 63)" stroke="none" stroke-width="1px">140</text><text x="0" y="0" dx="0em" dy="0.3em" style="text-anchor: end; visibility: hidden; font-family: &quot;Helvetica Neue&quot;, sans-serif; font-size: 12px; font-weight: 200;" fill="rgb(50, 49, 63)" stroke="none" stroke-width="1px">160</text></g><line x1="48.875" y1="0" x2="48.875" y2="377" fill="rgb(0, 0, 0)" stroke="rgb(204, 204, 204)" stroke-width="1px"></line></g></g><g transform="translate(48, 0)" clip-path="url(#clip_0)"><clipPath id="clip_0"><rect width="984" height="377"></rect></clipPath><g><g><g><line x1="0" y1="0" x2="0" y2="377" fill="rgb(0, 0, 0)" stroke="rgb(60, 60, 60)" stroke-width="1px" opacity="0.25"></line><line x1="123.015625" y1="0" x2="123.015625" y2="377" fill="rgb(0, 0, 0)" stroke="rgb(60, 60, 60)" stroke-width="1px" opacity="0.25"></line><line x1="246.03125" y1="0" x2="246.03125" y2="377" fill="rgb(0, 0, 0)" stroke="rgb(60, 60, 60)" stroke-width="1px" opacity="0.25"></line><line x1="369.046875" y1="0" x2="369.046875" y2="377" fill="rgb(0, 0, 0)" stroke="rgb(60, 60, 60)" stroke-width="1px" opacity="0.25"></line><line x1="492.0625" y1="0" x2="492.0625" y2="377" fill="rgb(0, 0, 0)" stroke="rgb(60, 60, 60)" stroke-width="1px" opacity="0.25"></line><line x1="615.078125" y1="0" x2="615.078125" y2="377" fill="rgb(0, 0, 0)" stroke="rgb(60, 60, 60)" stroke-width="1px" opacity="0.25"></line><line x1="738.09375" y1="0" x2="738.09375" y2="377" fill="rgb(0, 0, 0)" stroke="rgb(60, 60, 60)" stroke-width="1px" opacity="0.25"></line><line x1="861.109375" y1="0" x2="861.109375" y2="377" fill="rgb(0, 0, 0)" stroke="rgb(60, 60, 60)" stroke-width="1px" opacity="0.25"></line><line x1="984.125" y1="0" x2="984.125" y2="377" fill="rgb(0, 0, 0)" stroke="rgb(60, 60, 60)" stroke-width="1px" opacity="0.25"></line></g><g><line x1="0" y1="377" x2="984.125" y2="377" fill="rgb(0, 0, 0)" stroke="rgb(60, 60, 60)" stroke-width="1px" opacity="0.25"></line><line x1="0" y1="351.8666666666667" x2="984.125" y2="351.8666666666667" fill="rgb(0, 0, 0)" stroke="rgb(60, 60, 60)" stroke-width="1px" opacity="0.25"></line><line x1="0" y1="326.73333333333335" x2="984.125" y2="326.73333333333335" fill="rgb(0, 0, 0)" stroke="rgb(60, 60, 60)" stroke-width="1px" opacity="0.25"></line><line x1="0" y1="301.6" x2="984.125" y2="301.6" fill="rgb(0, 0, 0)" stroke="rgb(60, 60, 60)" stroke-width="1px" opacity="0.25"></line><line x1="0" y1="276.4666666666667" x2="984.125" y2="276.4666666666667" fill="rgb(0, 0, 0)" stroke="rgb(60, 60, 60)" stroke-width="1px" opacity="0.25"></line><line x1="0" y1="251.33333333333334" x2="984.125" y2="251.33333333333334" fill="rgb(0, 0, 0)" stroke="rgb(60, 60, 60)" stroke-width="1px" opacity="0.25"></line><line x1="0" y1="226.2" x2="984.125" y2="226.2" fill="rgb(0, 0, 0)" stroke="rgb(60, 60, 60)" stroke-width="1px" opacity="0.25"></line><line x1="0" y1="201.06666666666666" x2="984.125" y2="201.06666666666666" fill="rgb(0, 0, 0)" stroke="rgb(60, 60, 60)" stroke-width="1px" opacity="0.25"></line><line x1="0" y1="175.93333333333334" x2="984.125" y2="175.93333333333334" fill="rgb(0, 0, 0)" stroke="rgb(60, 60, 60)" stroke-width="1px" opacity="0.25"></line><line x1="0" y1="150.8" x2="984.125" y2="150.8" fill="rgb(0, 0, 0)" stroke="rgb(60, 60, 60)" stroke-width="1px" opacity="0.25"></line><line x1="0" y1="125.66666666666669" x2="984.125" y2="125.66666666666669" fill="rgb(0, 0, 0)" stroke="rgb(60, 60, 60)" stroke-width="1px" opacity="0.25"></line><line x1="0" y1="100.53333333333336" x2="984.125" y2="100.53333333333336" fill="rgb(0, 0, 0)" stroke="rgb(60, 60, 60)" stroke-width="1px" opacity="0.25"></line><line x1="0" y1="75.39999999999998" x2="984.125" y2="75.39999999999998" fill="rgb(0, 0, 0)" stroke="rgb(60, 60, 60)" stroke-width="1px" opacity="0.25"></line><line x1="0" y1="50.26666666666665" x2="984.125" y2="50.26666666666665" fill="rgb(0, 0, 0)" stroke="rgb(60, 60, 60)" stroke-width="1px" opacity="0.25"></line><line x1="0" y1="25.133333333333326" x2="984.125" y2="25.133333333333326" fill="rgb(0, 0, 0)" stroke="rgb(60, 60, 60)" stroke-width="1px" opacity="0.25"></line><line x1="0" y1="0" x2="984.125" y2="0" fill="rgb(0, 0, 0)" stroke="rgb(60, 60, 60)" stroke-width="1px" opacity="0.25"></line></g></g></g><g><g><line x1="0" y1="201.06666666666666" x2="984.125" y2="201.06666666666666" fill="rgb(0, 0, 0)" stroke="rgb(153, 153, 153)" stroke-width="1.5px"></line></g></g><g><g><line x1="123.015625" y1="0" x2="123.015625" y2="377" fill="rgb(0, 0, 0)" stroke="rgb(153, 153, 153)" stroke-width="1.5px"></line></g></g><g><g><g><g><g><path stroke="rgb(204, 51, 17)" stroke-width="2px" d="M124.04895624999999,296.81106760660805L124.12276562499999,298.27325419108075L124.762446875,245.59774471282958L125.32831875,204.41801427205402L126.90291875000001,270.0955635960897L127.12434687500001,279.40259769439695L128.64974062500002,312.86943483988443L128.77275625,288.5358804066976L129.289421875,298.64137990315754L129.732278125,257.91811058044436L130.5933875,264.794777692159L130.64259375,258.8036506144206L130.83941875000002,285.46129821777345L133.373540625,308.84520029703776L134.3330625,276.18801249186197L134.67750625,310.9905996704101L136.2029,299.0787089538574L136.867184375,320.3090621948242L137.260834375,224.54204888661704L137.43305625,299.0158526102702L138.61400625000002,312.0327532450358L138.933846875,326.37119987487796L139.278290625,294.37400367736814L139.524321875,304.73350761413576L140.58225625,306.689379196167L140.77908125000002,318.43148300170895L141.98463437499998,299.7777317047119L142.329078125,311.88317700703936L142.378284375,259.8937086613973L142.74733125,325.87085149129234L142.89495,300.15986490885416L143.58383750000002,250.99624270121257L146.26557812500002,322.1825187174479L146.90525937499999,310.85574040730796L146.92986249999998,271.9169881820679L147.07748125,313.27442489624025L147.741765625,311.2830599975586L147.96319375000002,264.04540083567304L149.16874687499998,306.5464663441976L149.24255625,214.51339884440105L149.906840625,321.2669119517009L150.17747500000002,322.01283727010093L151.579853125,295.7377639007568L152.0473125,284.5875030008952L154.040165625,326.14577608744304L155.3933375,326.50207069396976L155.467146875,313.55633885701496L155.81159062499998,326.51040232340495L155.910003125,270.7626835886637L157.090953125,245.1534454727173L157.263175,317.80901728312176L157.80444375,323.7127773030599L158.09968124999997,326.3918132273356L158.3457125,322.21976656595865L159.08380624999998,293.6377810160319L159.698884375,307.98686988830565L160.486184375,253.62307890574138L161.199675,300.79009658813476L161.59332500000002,286.23824902852374L161.986975,305.69485684712726L162.503640625,321.56121309916176L163.36475000000002,321.13419072469077L164.619509375,215.62277831395465L165.062365625,226.602463722229L165.28379375,190.63287076950073L165.6282375,197.0499898537L165.67744375,326.62786008199055L165.751253125,193.26286788781485L166.833790625,325.878416112264L167.94093125,326.1522764841716L168.3837875,309.5508193206787L168.605215625,299.8246534474691L168.92505624999998,323.9610004170736L168.99886562499998,283.31354988098144L169.195690625,270.3288396326701L170.179815625,324.2924822998047L170.59806875,318.1890028635661L170.917909375,158.01412207285563L172.24647812499998,261.4671066792806L173.1075875,266.44168867746987L174.116315625,212.70181114196777L174.583775,323.50602058410647L176.822659375,320.1864463043213L177.11789687499999,165.8009573809306L177.413134375,172.93885798772178L177.905196875,323.47790013631186L178.0282125,174.29541312535602L178.052815625,304.72893432617184L178.544878125,324.7774809265137L178.66789375,312.2371034749349L179.775034375,137.3582006454468L180.070271875,177.92186030069988L180.93138125000002,325.75723836263023L181.792490625,281.785736134847L181.81709375,323.30163200378416L181.8663,285.8559911855062L182.9488375,324.47693824768066L183.367090625,301.90328473409016L183.416296875,227.57523658752442L183.5393125,288.9951554870605L184.15439062500002,318.487033589681L184.17899375000002,326.61179125467936L184.425025,233.63780331293742L184.47423125,270.7366148885091L184.597246875,146.64511515299478L185.3107375,271.17463424682614L185.679784375,220.2427890777588L185.827403125,124.10792809804278L189.075015625,172.89153116861982L190.4281875,311.7294301605225L190.77263125,305.7540411376953L191.633740625,199.99428426980973L194.26627499999998,326.669546991984L196.013096875,231.42723458607992L197.095634375,321.285406443278L197.75991875,290.75033930460614L197.83372812500002,247.08508917490641L199.26070937499998,166.20684387842815L200.786103125,214.35011832237245L201.6472125,318.42283498128256L202.48371874999998,137.6301387023926L202.82816250000002,161.06258762359616L202.87736875,326.33326171875L202.901971875,318.2393569691976L204.328953125,178.8858892695109L206.075775,224.84426460266113L206.863075,287.8059376271566L207.87180312499999,319.29184598286946L208.6345,203.5202452468872L211.586875,325.41221878051755L212.02973125,157.61827379862467L212.0789375,148.40330947875975L213.30909375,107.92973976135255L214.68686875,93.64499331156412L215.05591562499998,106.91616683959961L216.335278125,317.110704015096L216.85194375,120.39938944498698L216.974959375,303.14817782084145L217.024165625,324.43644020080563L218.0821,284.1810076904297L219.6567,326.5275545501709L220.3455875,325.1186750539144L221.034475,149.93587388356525L222.31383749999998,111.34922648111979L223.83923125,123.4371791966756L224.109865625,326.5079574839274L225.90589375,108.25056981404623L226.2503375,170.56766330718997L226.39795625,307.74186820983886L227.013034375,123.5299201075236L227.13605,126.04140782674156L227.898746875,209.9470571009318L228.907475,124.87162404378253L229.227315625,279.1639478047689L229.276521875,306.0382273610433L231.269375,319.4290733846029L232.081278125,325.38275606791177L233.53286250000002,321.5377714029948L233.951115625,143.64724339803058L234.46778125,147.97437917073566L236.8788875,220.47645700772603L237.7646,137.90961741129556L237.8630125,133.37809305826823L238.05983750000001,199.92103548586368L239.88046875,326.38383633931477L240.8153875,153.31531796773274L241.110625,324.9084380340576L241.15983125,325.66005839029947L242.09475,274.7379877853393L242.3899875,312.035121383667L243.42331875,242.5120409011841L245.09633125,295.8963141377767L245.317759375,321.82821833292644L245.39156874999998,169.11038557688397L247.26140624999996,158.66303040822348L247.31061250000002,133.84745909372964L248.63918124999998,88.11779609680173L249.32806875000003,278.9343006769816L250.951875,83.19410031636556L251.911396875,134.69353654225668L254.12567812499998,260.2290543492635L254.519328125,220.54547458648682L254.863771875,151.76925900777184L256.36456250000003,267.07841595967614L256.90583125,176.27453225453695L258.701859375,219.6301170984904L258.751065625,277.2735451889038L259.538365625,130.92146082560222L260.473284375,181.9614266236623L262.2693125,128.70012282053628L262.367725,315.0562334950765L262.73677187500004,317.70292083740236L263.7455,325.91653643290203L263.819309375,197.71579155047735L265.910575,191.10118756135304L266.32882812500003,110.52954371134439L266.40263749999997,98.42971674601239L267.23914375000004,120.04797492980958L267.28835,168.06984272003172L267.46057187499997,323.5952716064453L268.346284375,301.7584543609619L268.86295,321.49127151489256L269.453425,105.02823303222658L269.724059375,103.59827997843422L270.38834375,108.02368871053062L270.88040625,132.28129013061525L271.00342187499996,135.62634347279868L273.611353125,284.5174271901449L273.857384375,105.75208768208819L275.08754062500003,319.5558982340495L275.555,120.86675646464028L275.874840625,255.1858634440104L276.022459375,109.92099919637042L276.34229999999997,72.79203699747723L277.744678125,254.26339195251464L278.31055,187.94033909161888L278.43356562499997,148.82633861541748L279.02404062500005,258.8740092595418L279.565309375,319.9394024658203L279.88515,95.09396817525231L280.475625,120.76674335479737L282.83752499999997,113.8212659962972L283.428,202.64721584002177L284.75656875,218.5584780406952L285.00260000000003,243.23497993469238L285.470059375,128.98870496114094L286.798628125,147.59513662974038L287.75815,299.26628087361655L287.831959375,132.54282563527426L288.127196875,142.53162000020345L288.79148125,313.55486236572267L288.88989375,92.93387100219724L291.44861875000004,320.62849245707196L291.64544375,305.1903953806559L292.014490625,129.04350292205814L294.40099375000005,190.26808513959247L295.040675,118.56427375793453L295.58194375,231.86253346125287L297.84543125,145.26385754903157L298.04225625,119.76881261189777L299.050984375,74.68986521402996L300.551775,75.33281964619954L301.314471875,322.9237556966146L302.889071875,131.9324355061849L303.33192812500005,319.426829884847L303.577959375,325.64203369140625L303.6025625,110.94357487996422L304.070021875,288.1057708231608L304.63589375,118.71805895487466L305.103353125,89.21383201599122L306.30890625,212.61073487917582L306.5549375,158.25569618225094L306.628746875,100.85575492858891L306.99779375,310.1911275736491L307.80969687500004,324.56446350097656L310.220803125,115.15453763326008L311.0819125,76.83552345275882L312.139846875,242.17005100250245L312.28746562500004,127.11956286112465L313.935875,192.20418108622235L314.4279375,146.67966888427733L314.6247625,314.0735230763753L314.87079375,208.31249615033468L315.73190312500003,236.557363503774L317.3803125,92.54128730773925L318.16761249999996,102.10924809773763L319.619196875,326.2799258677165L320.48030625,196.8912946041425L320.750940625,124.40290517171223L321.046178125,127.83635144551593L321.46443125,104.31883649190263L324.2691875,126.63356712341309L325.130296875,117.86400461832682L325.277915625,296.7313658396403L326.97553125,136.0373305765788L328.05806874999996,67.61988800048829L328.2056875,233.67150374730429L328.77155937500004,313.14654541015625L328.894575,111.86881718953447L329.11600312499996,128.70403456370033L331.330284375,92.44097218831376L331.40409375,313.3770698038737L332.09298125000004,117.8904951731364L332.3390125,117.03225105285645L333.76599375,307.6928180185954L334.627103125,326.3585442352295L335.43900625,308.5785785675049L335.463609375,105.72042940775555L336.81678125,94.30754480997723L336.939796875,104.13697878519696L339.99058437499997,293.8623610941569L340.06439375,99.51207115173338L341.44216875,156.2343891906738L341.614390625,111.67788002014157L342.08185000000003,119.68470054626465L342.155659375,98.7653596496582L342.672325,105.95348492940269L342.844546875,136.28685281117757L343.41041874999996,326.5506990305583L343.828671875,130.63276363372802L344.271528125,90.11127985636392L344.41914687499997,134.10514996846518L344.665178125,191.8524106311798L345.796921875,121.92731824239095L345.993746875,153.23892871856688L350.00405625,170.58584380467735L350.176278125,98.02633740743005L350.8405625,275.4617992909749L351.99690937500003,206.41711517016094L352.2183375,120.19612261454262L353.00563750000003,108.50376889546715L353.522303125,69.81047375996906L354.5802375,65.22854736328128L354.654046875,134.26015279134114L355.146109375,117.38811421712239L355.31833124999997,326.5143524169922L355.9580125,95.60688591003418L357.68023125,107.01281949361169L357.901659375,198.93444470842678L358.07388125,100.21128565470377L358.39372187500004,94.37984494527177L358.934990625,118.66783907572426L359.86990937499996,99.19855644226072L360.608003125,160.57981332143146L361.173875,130.44970268249511L361.61673125,109.06075126647949L363.33894999999995,318.19195584615073L365.110375,80.37726173400881L365.184184375,84.26699175516768L366.168309375,93.5053018951416L366.758784375,129.1993590418498L368.35798750000004,169.79745018641154L370.27703125,73.00369298299154L370.400046875,116.52264104207353L370.47385625,298.76671867370607L371.1135375,101.19520411173505L372.196075,86.72906974792483L372.589725,318.85909022013345L373.18019999999996,197.610639184316L373.598453125,93.22746266682941L375.345275,129.028642133077L375.8373375,199.55886000672976L376.009559375,143.9358926518758L378.7897125,119.88697985331214L378.863521875,137.64301965077718L379.38018750000003,109.48694910685225L380.831771875,94.89229288736982L381.077803125,150.13827303568522L381.176215625,111.09292101542155L381.88970625,101.2926333618164L382.67700625,198.41057058731715L382.70160937500003,80.24580607096357L383.98097187499997,94.9744011433919L384.399225,157.79255250295006L384.74366875000004,163.60229406356814L385.13731874999996,322.2759115854899L385.555571875,152.78606295267738L386.539696875,186.0495769405365L387.671440625,219.94644457181295L387.69604375,278.2930863952637L388.23731250000003,117.02303736368816L388.409534375,91.7060150909424L389.098421875,128.08253239949545L389.34445312500003,114.65730522155764L389.46746874999997,137.5989358393351L389.738103125,161.08260654449464L389.95953125,136.01645835876465L390.303975,109.87263931274413L391.23889375,91.67139424641925L391.312703125,83.42141286214195L392.149209375,124.71916193644208L392.247621875,85.82059616088867L392.81349375,140.35276467641194L392.9611125,103.66373456319172L393.01031875,125.4151166534424L393.99444374999996,108.7153865305583L394.1420625,166.86537577311196L394.461903125,115.07553576151531L394.58491875,96.48783348083498L396.15951875,115.82639869689945L396.626978125,203.12992977023126L396.84840625,95.12668108622233L397.955546875,117.02077468872073L398.52141874999995,97.25521586100257L398.570625,304.19249819437664L398.595228125,91.63245897928874L400.0468125,100.51979563395179L400.34205,125.04803599039715L403.95870937499996,86.33514378865561L405.262675,126.0167101542155L405.7547375,82.98829277038578L406.51743437500005,119.82380711873373L406.7388625,62.86890335083007L407.157115625,128.3202666727702L407.353940625,74.51693356831868L407.57536875,89.00781354268389L408.338065625,125.16810157775879L409.2975875,104.72700963338212L409.592825,205.5852007126808L410.15869687500003,99.07460787455238L410.503140625,85.88120900472006L410.552346875,136.98675282796222L412.323771875,120.6700907007853L415.128528125,149.65961661020916L416.9737625,87.71038037618001L417.490428125,113.50397377014161L417.61344375,226.12038452148437L417.9578875,102.01984367370608L418.326934375,115.77189315795897L418.49915625,107.66386586507161L418.96661562500003,321.2820316060384L419.26185312499996,117.05088935852052L421.64835625,114.052566986084L422.2880375,232.78209511439005L422.38645,105.68318155924476L422.7801,82.64816286722817L423.81343124999995,168.328221505483L425.38803125000004,90.42013498942055L425.46184062500004,103.40611559549967L425.855490625,95.07490801493327L427.9959625,277.89929945627847L428.217390625,179.9670380338033L428.9800875,73.44151100158695L429.52135625,98.59873664855957L431.85865312500005,90.51454414367674L433.630078125,80.10279734293619L434.76182187499995,116.37699572245282L435.45070937500003,92.2125474802653L436.90229375,75.97026120503745L437.29594375000005,108.20092519124347L438.058640625,205.95031142234802L438.77213125000003,192.94486737728118L439.510225,105.77797421773272L439.83006562500003,87.5169504292806L440.297525,196.61129636685055L441.355459375,82.80546671549479L441.84752187500004,144.97785926818847L443.274503125,115.75715700785321L443.69275624999995,119.83745986938476L444.357040625,92.25862551371256L444.87370625,116.59347427368164L445.16894375,99.72828125000001L445.53799062499996,80.58375958760575L445.63640312499996,103.85850677490237L446.05465625,138.0540019607544L446.94036875,61.0963851420085L447.92449375,99.06944974263507L447.949096875,97.78109603881836L448.047509375,134.51431542714434L448.736396875,104.80846593221031L450.557028125,93.01452194213869L451.442740625,88.04472895304366L452.74670625,194.76967339197793L452.84511875,100.23960744222006L453.33718125,320.315505065918L454.54273437499995,160.06127245585122L455.25622500000003,126.15481482187909L456.28955625000003,324.7647773488363L457.54431562499997,115.26774808247887L457.9133625,101.44923731486L458.11018750000005,245.3758251953125L458.25780625,125.21116910298664L459.561771875,79.72103805541991L459.63558125000003,103.85518946329756L460.61970625000004,89.32560432434082L461.234784375,325.47348358154295L461.94827499999997,115.79052187601724L462.78478125,120.4599160003662L463.645890625,273.16896650950116L464.2117625,94.81833409627279L464.6054125,110.94664291381838L465.909378125,111.34844029744465L466.40144062499996,91.11522682189945L466.47524999999996,69.47996022542321L466.72128125,88.18176460266113L466.8689,117.12946937561037L467.41016874999997,122.25435147603352L469.427625,100.00802841186521L472.89666562499997,108.61357574462892L473.044284375,154.1807384109497L474.520471875,94.00545852661133L474.545075,101.96314257303874L474.69269375,79.94514834086101L474.914121875,274.2755344136556L475.332375,212.86731479008992L475.6276125,143.99391684214274L475.77523125,100.75409754435219L477.226815625,77.1297383117676L478.456971875,319.01693097432457L479.61331875,105.71824343363443L480.49903125000003,105.77491577148442L481.08950625,321.558825785319L481.163315625,252.50729731241861L483.00855,75.65394691467287L483.15616875,292.1741562906901L483.8942625,130.4227854792277L484.115690625,80.86764859517416L484.214103125,88.71125930786133L484.361721875,100.99493820190429L485.81330625,128.94781861623127L486.625209375,85.60869089762372L486.6498125,78.268975982666L486.8466375,130.10798603057862L486.94505000000004,113.65773020426434L487.363303125,232.18995259602863L488.937903125,84.31418195088702L489.4053625,115.87761568705241L490.217265625,99.48072926839194L490.24186875,123.24526888529459L490.83234375,90.29434560139975L492.72678437499997,126.46676195780438L494.27678125,84.97609107971192L495.31011249999995,74.61517776489256L495.40852499999994,127.92885746002196L496.49106249999994,89.41510462443034L496.958521875,280.336612663269L498.60693125000006,118.62464691162108L500.0339125,98.26382240295413L500.452165625,105.22898790995276L500.599784375,228.45407009124756L502.5926375,88.26202245076496L503.281525,101.01369155883788L503.69977812499997,104.90296137491862L503.74898437499996,321.8828293355306L504.536284375,78.24596572875976L505.29898124999994,105.98771268208822L506.750565625,77.22580612182617L510.26881249999997,323.545233891805L510.8592875,141.48022876739503L511.08071562500004,78.15188255310056L511.22833437500003,125.96464466094972L512.360078125,89.80142761230468L512.4338875000001,85.31581830342611L512.9013468750001,72.13415466308595L513.3688062499999,98.02332689921059L516.148959375,321.8801256306966L516.493403125,304.22293884277343L518.0434,95.79867637634277L519.0029218750001,70.78140101114911L519.5195875000001,120.39913057963054L520.9711718750001,99.86823153177897L521.2910125,89.62651133219401L521.5370437500001,76.77887029012044L521.6354562500001,85.21685503641766L522.791803125,113.50611180623372L524.563228125,305.76741584777835L525.104496875,113.16370005289713L525.52275,306.5529955037435L526.65449375,89.00073788960776L527.491,88.12718236287435L529.090203125,66.70284309387205L530.418771875,251.00542762756348L531.058453125,117.76848330179854L531.1814687499999,117.76157063802083L532.928290625,101.43960177103679L533.026703125,99.5886952972412L533.814003125,231.11956831614177L535.0195562499999,74.1169290669759L536.54495,118.26585952758785L536.569553125,326.6677253468831L537.1846312499999,165.2532725906372L537.4060593749999,78.26662701924641L537.750503125,114.66110191345217L538.7838343750001,223.2877287864685L539.3989125,232.93531943639118L542.89255625,70.1310641225179L543.6552531250001,78.59568323771163L544.491759375,79.25603917439781L545.05763125,148.82387939453125L545.9925499999999,71.0733340199788L546.23858125,108.29576578776044L547.148896875,110.84251192728675L547.345721875,103.39233820597332L547.6901656250001,103.99774757385251L547.9608,191.19142850399015L548.40365625,100.49337219238282L548.4528625,101.07880098978677L549.018734375,120.33362805684408L549.0433375,123.22390290578207L549.067940625,133.87742515563963L549.14175,76.72596588134763L549.6092093750001,99.94617876688642L550.47031875,122.95618339538572L550.888571875,105.01382286071777L551.233015625,91.92582054138182L551.74968125,99.94308197021485L552.1925375000001,74.793507232666L552.4385687500001,156.23889057159423L553.644121875,111.98822123209635L554.6282468750001,86.04884829203291L554.972690625,83.7079863993327L555.120309375,200.0244310730696L555.4647531249999,114.57344243367515L555.68618125,85.6372715504964L555.858403125,112.71905565897623L555.88300625,92.60057706197102L555.98141875,61.55102940877282L556.5964968750001,85.78323326110842L556.8425281250001,79.20285672505696L557.3345906249999,323.31238929748537L557.679034375,224.09434364954632L558.5647468750001,89.05021952311199L559.0322062500001,103.89911028544105L560.237759375,121.30444025675453L560.2623625,83.20433029174808L561.0496625000001,99.0140237935384L561.9845812499999,116.20915509541828L564.715528125,84.1030916341146L564.93695625,308.7066114552816L565.33060625,95.27172238667805L565.404415625,93.61323916117351L565.62584375,108.44214935302733L566.31473125,96.33739435831706L567.1512375,142.95035388946533L567.175840625,109.11778793334963L567.4710781250001,59.403530349731454L568.4306,89.04960591634114L569.045678125,85.32260632832845L569.46393125,104.0556758880615L570.54646875,115.27514971415201L571.13694375,95.32453091939288L571.6782125,326.68730323791505L572.3671,83.55899500528972L573.69566875,145.83938714345297L574.7782062499999,93.66465749104816L576.967884375,118.52741900126142L576.9924875,112.39599169413248L579.1329593749999,88.57344706217447L579.3297843749999,110.01369216918948L580.436925,81.99389506022135L581.9131125,119.46820281982423L583.413903125,102.2997058868408L583.5861249999999,96.63025736490886L584.299615625,157.1477956008911L585.2099312500001,125.64644640604658L585.628184375,325.2672445933024L586.661515625,95.89887644449868L587.842465625,102.76354466756186L588.826590625,95.36417566935222L589.44166875,82.17239710489906L589.9091281249999,108.28660003662105L590.03214375,168.04998678843182L590.598015625,83.63616564432778L591.139284375,110.96944224039714L591.65595,120.26853780110673L592.812296875,77.24105041503907L593.3289625,74.80743802388508L594.2392781249999,284.944209874471L594.632928125,89.9061434427897L596.059909375,88.22183120727539L597.1424468749999,92.21212562561038L597.240859375,204.0053939795494L597.8559375000001,97.66587219238284L602.407515625,117.574267171224L602.7765625000001,110.96718915303546L602.850371875,326.594658203125L603.391640625,85.30456245422363L603.539259375,111.0316082763672L604.10513125,102.80379343668619L604.720209375,116.65551567077637L605.0892562500001,105.29818166097004L606.07338125,119.74560101826984L606.221,80.19384124755862L606.56544375,151.90530234018962L606.836078125,103.7562070210775L607.05750625,124.62000691731771L608.18925,114.86802162170409L608.361471875,86.78167694091798L608.459884375,90.99612958272297L608.607503125,100.79301363627116L610.0590875,109.81619707743329L610.723371875,326.45364369710285L611.28924375,78.95343516031897L613.0114625,68.40612920125324L613.55273125,107.10364288330078L614.364634375,138.10542987823487L614.561459375,111.81263381958007L614.7828875,116.78270484924315L614.955109375,130.47943384806314L615.939234375,95.14590423583985L616.2590749999999,101.88759223937984L616.382090625,87.71915303548178L616.529709375,187.3886778418223L616.60351875,128.6552624130249L618.4733562499999,105.45411448160809L618.497959375,113.92836914062502L618.547165625,110.91344103495283L619.580496875,128.10308343251543L619.65430625,115.218621190389L620.4170031250001,90.09007207234703L621.0812875,101.86353693644207L621.155096875,89.74894505818685L621.2781125,259.0637000401815L622.6558875000001,100.48214510599769L623.024934375,126.8253480021159L623.2463624999999,72.59518427530924L623.2955687499999,218.07031310717267L624.255090625,105.72274002075198L624.501121875,267.1551024246216L624.845565625,108.71428395589191L625.9035,127.78859078725179L626.44476875,223.28967507044473L627.0106406250001,82.91781428019203L628.01936875,118.88095237731932L628.339209375,93.15520088195797L628.3638125,100.75845990498857L628.855875,85.4765832773844L628.90508125,86.8830946350098L629.0280968750001,103.54436887105305L629.29873125,100.4083684794108L632.005075,101.18631640116377L632.029678125,98.12749623616537L632.44793125,207.35422274112702L632.54634375,112.02451990763348L633.456659375,206.2058091322581L634.2193562499999,79.39989161173503L634.243959375,81.16713663736977L634.3177687499999,293.70345611572264L634.342371875,71.53612775166829L635.30189375,120.34147071838379L635.523321875,103.28215744018553L636.113796875,62.53716260274251L636.9257,69.12379984537762L637.5161750000001,88.02683848063151L637.540778125,105.95584348042809L638.426490625,86.71950131734212L639.361409375,127.42959247589113L640.345534375,129.96700508117678L640.5423593749999,230.25947378794353L640.5669625,120.43452802022296L641.329659375,90.39392247517901L641.5510875,107.48517206827796L641.6495,78.72170272827145L643.2240999999999,191.54901204427085L644.8233031249999,95.65509239196774L645.389175,138.286103515625L645.782825,74.47435501098636L647.4558375,110.26085105895993L647.529646875,86.43984044392903L647.6526625,90.12507642110188L649.301071875,139.5984502029419L649.7439281249999,326.6872552998861L651.5891625,105.52839925130212L652.548684375,102.67669054667152L652.5732875,169.78607449213663L654.443125,109.41942359924315L654.713759375,91.9881399790446L656.435978125,90.76453137715657L656.75581875,94.56478027343752L657.469309375,141.06676806132L657.4939125000001,89.20733161926267L658.502640625,113.28659398396809L659.093115625,142.20293769836428L659.240734375,153.25977696736652L659.7327968750001,118.14025230407714L659.8804156250001,83.72045028686523L660.39708125,132.3470946629842L660.5447,102.99125989278156L662.0208875,116.98094777425126L663.472471875,67.2243609110514L664.259771875,101.31994845072427L664.4319937500001,91.36215560913087L666.4986562500001,86.48081787109379L669.6970625,96.51162033081056L670.312140625,109.07704060872396L670.63198125,102.22724276224773L671.2962656249999,110.20868489583336L671.4684875,119.75749923706053L671.739121875,79.14417098999024L671.8621375,326.48797691345214L672.034359375,298.0731033325195L672.0589625,129.88384698232016L672.40340625,326.70738927205406L673.09229375,117.16068662007649L674.789909375,88.58837496439617L674.86371875,83.6787825520833L675.8970499999999,68.35635035196941L676.758159375,77.02357475280758L677.668475,76.97238652547202L679.907359375,82.98195536295572L679.956565625,114.5593870035807L680.3010093749999,144.809505704244L682.93354375,78.70772399902341L683.105765625,318.86781494140627L683.401003125,155.43176277160646L684.60655625,136.65341094970705L684.6557625,112.03462524414061L684.926396875,99.2187095896403L684.9509999999999,109.01130798339847L685.074015625,92.03581914265948L687.16528125,104.2160957082113L687.239090625,316.1051750946045L687.26369375,105.56935750325522L690.85575,146.80646497090655L690.9541624999999,90.27569770812988L690.978765625,105.39750925699872L691.39701875,225.80378260294594L691.766065625,325.4043761189779L692.012096875,91.93631896972659L692.28273125,123.17079715728761L692.405746875,92.38365748087563L692.5287625,110.52464444478352L692.627175,88.77940800984703L692.77479375,95.43555539449056L693.36526875,100.88823773701989L693.6113,99.98090507507322L694.25098125,323.51638478597005L694.3001875,94.55140556335448L694.5216156250001,100.94927243550615L695.3581218749999,119.11746902465819L695.9239937499999,85.45615208943684L696.7605,66.32370122273761L697.178753125,89.86885724385576L697.769228125,320.77520200093585L698.2366875,212.75713162740072L698.58113125,77.01669085184733L699.393034375,119.44895090738936L702.1731875,94.28898320515947L703.3787406250001,70.90634668986002L704.87953125,70.6421122741699L705.37159375,115.42584770202637L705.642228125,102.46211034138997L706.134290625,118.38343233744303L707.610478125,95.10939463297524L707.9303187500001,98.09853207906087L708.840634375,89.65368260701496L709.332696875,83.5932898712158L709.60333125,117.20427187601723L711.7192,68.89098401387531L711.96523125,215.49571257591248L714.105703125,104.51384839375811L715.434271875,92.86231870015462L716.3445875,101.11114957173669L716.39379375,159.46322636922199L717.107284375,322.8649644978841L718.06680625,71.4602897898356L719.24775625,108.93542208353682L720.42870625,106.44265416463219L720.4779125,75.56364125569661L720.6747375,286.1885468800863L721.41283125,99.34629185994464L721.9787031249999,77.75004681905108L722.323146875,99.40788263956705L723.7255250000001,92.83876195271807L726.087425,76.63654228210447L727.1945656250001,76.97397806803383L727.292978125,91.16675061543782L728.769165625,241.95115637461345L729.900909375,78.4440552520752L730.639003125,79.50715774536133L731.180271875,114.15921951293944L731.377096875,308.47637468973795L732.92709375,130.6898817952474L734.3786781250001,94.30295234680176L735.1167718749999,78.25082664489747L735.510421875,120.4823318227132L735.658040625,85.61804840087888L736.46994375,149.76640815734862L737.183434375,81.47298126220704L737.527878125,158.76942406972248L738.290575,303.6723993428548L739.250096875,282.8156463368734L741.3659656250001,159.8338640340169L743.16199375,108.51253196716306L743.7770718749999,112.98606089274085L744.0969125,169.80973910013833L744.269134375,92.31243115743001L744.318340625,282.5190537516276L746.2619874999999,100.13650232950846L747.713571875,126.81614390055339L750.518328125,86.90390932718913L750.887375,120.23289108276367L752.1667375,97.34045926411949L752.8310218749999,72.30211034138995L754.3564156250001,96.55675877888996L754.97149375,72.66025535583492L756.472284375,82.99064173380538L757.161171875,321.6982775115967L757.2841874999999,65.11383165995284L758.0714875,150.45756907145184L758.9325968750001,103.84303237915037L759.326246875,75.01984184265137L759.7445,93.21729980468751L760.753228125,63.478914769490586L762.032590625,206.32177841504415L763.0659218750001,158.32797714233396L763.410365625,124.47319670359295L763.8040156249999,79.30718905131022L764.32068125,81.96462409973145L764.542109375,88.21952059427895L764.9357593750001,82.98668205261231L765.00956875,68.54186093648275L766.48575625,87.78477060953776L766.510359375,80.26315963745117L766.854803125,82.82996304829913L769.561146875,132.802323773702L769.8809875,103.57797342936198L770.151621875,84.20849777221679L772.0214593750001,90.38103673299156L772.365903125,315.63097211201983L772.6119343749999,67.0826752726237L772.7595531249999,78.53196400960286L774.26034375,55.09475484212237L775.2936749999999,128.32669036865232L779.1809687499999,208.16084539413453L780.1158875,84.22814277648928L781.2476312499999,130.70550000508626L781.2968375,215.40229454040528L782.2809625000001,76.17517710367838L782.305565625,131.79408156077068L782.3301687500001,113.1691649881999L782.72381875,110.08498560587566L783.0436593750001,111.0289333343506L783.0928656250001,272.2947638193766L785.528575,70.82884048461915L788.948409375,69.07803820292156L789.2190437500001,99.34680959065759L790.79364375,171.97710847218832L790.9412625,77.06782155354819L791.08888125,212.5785708586375L791.1872937500001,123.88955120086672L791.211896875,290.9603462219238L793.05713125,116.04842847188314L794.04125625,91.01542943318685L795.394428125,60.43303787231446L798.07616875,159.2627495320638L798.346803125,73.84451642354327L798.5436281249999,77.38732851664224L799.724578125,123.80358872731526L800.315053125,78.1123624420166L801.299178125,148.09797299702961L801.3729875,81.38031705220538L802.135684375,82.78409594217936L802.381715625,73.77367360432942L802.5539375,173.42701812744139L802.8983812499999,97.55666936238606L802.9967937499999,94.29608762105306L804.399171875,322.2098625691732L804.8912343750001,218.90629121144613L804.96504375,108.21747339884439L805.4817093749999,96.9777505493164L807.597578125,156.65741353352863L809.8364624999999,187.35458431561787L809.8856687499999,92.02921328226728L810.67296875,59.97853741963701L811.1158250000001,94.55731152852377L811.6816968750001,91.98548421223956L814.486453125,146.7457274881999L818.078509375,95.6431654103597L818.718190625,182.1312387021383L818.915015625,90.3477965037028L819.800728125,115.95242777506513L821.1539,94.02135477701825L822.6792937499999,230.3907233174642L822.999134375,70.69653152465821L823.2205625,128.00915845235187L825.2626218749999,75.38004819234214L825.9761125,58.03675003051757L826.935634375,103.55726420084636L828.5348375,94.14030820210775L833.824509375,85.63164362589521L835.76815625,75.68744600931802L836.4078375,83.87642145792643L836.94910625,100.09469078063967L837.4165656250001,175.25618230819705L837.908628125,118.96107599894202L838.0316437500001,116.95171516418458L838.42529375,125.26481175740562L838.7205312499999,101.80963541666665L839.11418125,89.41849863688151L839.778465625,88.57921880086263L841.451478125,326.299474995931L842.2879843750001,138.73883984883628L842.6570312499999,147.7820565923055L842.927665625,93.2838857269287L842.976871875,109.85642667134601L843.1736968749999,108.71783137003581L843.2967125,101.23740875244141L844.108615625,108.09922945658366L845.51099375,71.88680402119957L847.28241875,67.69720245361327L848.094321875,84.37440170288085L848.26654375,91.71874743143718L848.487971875,82.90634750366212L849.718128125,71.90723520914713L849.7919375,128.16466941833494L850.308603125,166.10881060918172L850.603840625,79.22196482340496L851.0713000000001,274.73294949849446L851.538759375,71.3984017944336L854.884784375,89.55318532307939L856.8776375,86.56476694742838L856.902240625,206.6528737974167L857.000653125,92.38476005554196L857.738746875,95.04662457784019L858.0831906249999,121.07396859486897L858.20620625,108.5584374237061L858.526046875,114.50708661397294L859.33795,229.59660350163776L861.084771875,103.9859931691488" style="fill: none;" fill="none"></path></g></g></g></g></g></g><g transform="translate(48, 377)" clip-path="url(#clip_1)"><clipPath id="clip_1"><rect width="984" height="23"></rect></clipPath><g><g><line x1="0" y1="0" x2="0" y2="5" style="visibility: inherit;" fill="rgb(0, 0, 0)" stroke="rgb(204, 204, 204)" stroke-width="1px"></line><line x1="123.015625" y1="0" x2="123.015625" y2="5" style="visibility: inherit;" fill="rgb(0, 0, 0)" stroke="rgb(204, 204, 204)" stroke-width="1px"></line><line x1="246.03125" y1="0" x2="246.03125" y2="5" style="visibility: inherit;" fill="rgb(0, 0, 0)" stroke="rgb(204, 204, 204)" stroke-width="1px"></line><line x1="369.046875" y1="0" x2="369.046875" y2="5" style="visibility: inherit;" fill="rgb(0, 0, 0)" stroke="rgb(204, 204, 204)" stroke-width="1px"></line><line x1="492.0625" y1="0" x2="492.0625" y2="5" style="visibility: inherit;" fill="rgb(0, 0, 0)" stroke="rgb(204, 204, 204)" stroke-width="1px"></line><line x1="615.078125" y1="0" x2="615.078125" y2="5" style="visibility: inherit;" fill="rgb(0, 0, 0)" stroke="rgb(204, 204, 204)" stroke-width="1px"></line><line x1="738.09375" y1="0" x2="738.09375" y2="5" style="visibility: inherit;" fill="rgb(0, 0, 0)" stroke="rgb(204, 204, 204)" stroke-width="1px"></line><line x1="861.109375" y1="0" x2="861.109375" y2="5" style="visibility: inherit;" fill="rgb(0, 0, 0)" stroke="rgb(204, 204, 204)" stroke-width="1px"></line><line x1="984.125" y1="0" x2="984.125" y2="5" style="visibility: inherit;" fill="rgb(0, 0, 0)" stroke="rgb(204, 204, 204)" stroke-width="1px"></line></g><g transform="translate(0, 8)"><text x="0" y="0" dx="0em" dy="0.95em" style="text-anchor: middle; visibility: hidden; font-family: &quot;Helvetica Neue&quot;, sans-serif; font-size: 12px; font-weight: 200;" fill="rgb(50, 49, 63)" stroke="none" stroke-width="1px">-5k</text><text x="123.015625" y="0" dx="0em" dy="0.95em" style="text-anchor: middle; visibility: inherit; font-family: &quot;Helvetica Neue&quot;, sans-serif; font-size: 12px; font-weight: 200;" fill="rgb(50, 49, 63)" stroke="none" stroke-width="1px">0</text><text x="246.03125" y="0" dx="0em" dy="0.95em" style="text-anchor: middle; visibility: inherit; font-family: &quot;Helvetica Neue&quot;, sans-serif; font-size: 12px; font-weight: 200;" fill="rgb(50, 49, 63)" stroke="none" stroke-width="1px">5k</text><text x="369.046875" y="0" dx="0em" dy="0.95em" style="text-anchor: middle; visibility: inherit; font-family: &quot;Helvetica Neue&quot;, sans-serif; font-size: 12px; font-weight: 200;" fill="rgb(50, 49, 63)" stroke="none" stroke-width="1px">10k</text><text x="492.0625" y="0" dx="0em" dy="0.95em" style="text-anchor: middle; visibility: inherit; font-family: &quot;Helvetica Neue&quot;, sans-serif; font-size: 12px; font-weight: 200;" fill="rgb(50, 49, 63)" stroke="none" stroke-width="1px">15k</text><text x="615.078125" y="0" dx="0em" dy="0.95em" style="text-anchor: middle; visibility: inherit; font-family: &quot;Helvetica Neue&quot;, sans-serif; font-size: 12px; font-weight: 200;" fill="rgb(50, 49, 63)" stroke="none" stroke-width="1px">20k</text><text x="738.09375" y="0" dx="0em" dy="0.95em" style="text-anchor: middle; visibility: inherit; font-family: &quot;Helvetica Neue&quot;, sans-serif; font-size: 12px; font-weight: 200;" fill="rgb(50, 49, 63)" stroke="none" stroke-width="1px">25k</text><text x="861.109375" y="0" dx="0em" dy="0.95em" style="text-anchor: middle; visibility: inherit; font-family: &quot;Helvetica Neue&quot;, sans-serif; font-size: 12px; font-weight: 200;" fill="rgb(50, 49, 63)" stroke="none" stroke-width="1px">30k</text><text x="984.125" y="0" dx="0em" dy="0.95em" style="text-anchor: middle; visibility: hidden; font-family: &quot;Helvetica Neue&quot;, sans-serif; font-size: 12px; font-weight: 200;" fill="rgb(50, 49, 63)" stroke="none" stroke-width="1px">35k</text></g><line x1="0" y1="0" x2="984.125" y2="0" fill="rgb(0, 0, 0)" stroke="rgb(204, 204, 204)" stroke-width="1px"></line></g></g></g></g></svg>